<svg width="36" height="30" viewBox="0 0 36 30" fill="none" xmlns="http://www.w3.org/2000/svg">
<g clip-path="url(#clip0_124_376)">
<path d="M3.82349 11.2749C3.54514 11.4603 3.37793 11.7727 3.37793 12.1071V25.8571C3.37793 26.8398 3.83491 27.7442 4.58224 28.3844C5.3248 29.0204 6.303 29.3571 7.29657 29.3571H27.7271C28.7206 29.3571 29.6989 29.0204 30.4414 28.3844C31.1887 27.7442 31.6457 26.8398 31.6457 25.8571V12.1071C31.6457 11.7727 31.4785 11.4603 31.2002 11.2749L18.0663 2.52489C17.7305 2.30119 17.2932 2.30119 16.9574 2.52489L3.82349 11.2749Z" stroke="#272C2F" stroke-opacity="0.25" stroke-width="2" stroke-linecap="round" stroke-linejoin="round"/>
<mask id="path-2-outside-1_124_376" maskUnits="userSpaceOnUse" x="11.1338" y="13" width="13" height="17" fill="black">
<rect fill="white" x="11.1338" y="13" width="13" height="17"/>
<path d="M13.1338 27.5V15H21.8897V27.5"/>
</mask>
<path d="M11.1338 27.5C11.1338 28.6046 12.0292 29.5 13.1338 29.5C14.2384 29.5 15.1338 28.6046 15.1338 27.5H11.1338ZM13.1338 15V13C12.0292 13 11.1338 13.8954 11.1338 15H13.1338ZM21.8897 15H23.8897C23.8897 13.8954 22.9943 13 21.8897 13V15ZM19.8897 27.5C19.8897 28.6046 20.7852 29.5 21.8897 29.5C22.9943 29.5 23.8897 28.6046 23.8897 27.5H19.8897ZM15.1338 27.5V15H11.1338V27.5H15.1338ZM13.1338 17H21.8897V13H13.1338V17ZM19.8897 15V27.5H23.8897V15H19.8897Z" fill="#272C2F" fill-opacity="0.25" mask="url(#path-2-outside-1_124_376)"/>
</g>
<defs>
<clipPath id="clip0_124_376">
<rect width="35.0237" height="30" fill="white"/>
</clipPath>
</defs>
</svg>
