<svg width="18" height="18" viewBox="0 0 18 18" fill="none" xmlns="http://www.w3.org/2000/svg">
<path d="M18 4.5V15.75C18 16.0605 17.9279 16.3506 17.7837 16.6201C17.6394 16.8896 17.4411 17.127 17.1887 17.332C16.9363 17.5371 16.6406 17.6982 16.3017 17.8154C15.9627 17.9326 15.6058 17.9941 15.2308 18H2.76923C2.38702 18 2.03005 17.9414 1.69832 17.8242C1.36659 17.707 1.07452 17.5459 0.822115 17.3408C0.569712 17.1357 0.371394 16.8984 0.227163 16.6289C0.0829327 16.3594 0.00721154 16.0664 0 15.75V4.5H2.76923V3.375C2.76923 2.91211 2.8774 2.47559 3.09375 2.06543C3.3101 1.65527 3.60938 1.29785 3.99159 0.993164C4.3738 0.688477 4.8137 0.448242 5.3113 0.272461C5.80889 0.0966797 6.34615 0.00585938 6.92308 0C7.67308 0 8.36899 0.152344 9.01082 0.457031C9.65264 0.152344 10.3413 0 11.0769 0C11.6466 0 12.1839 0.0878906 12.6887 0.263672C13.1935 0.439453 13.6334 0.682617 14.0084 0.993164C14.3834 1.30371 14.6791 1.66113 14.8954 2.06543C15.1118 2.46973 15.2236 2.90625 15.2308 3.375V4.5H18ZM13.8462 3.375C13.8462 3.07031 13.774 2.78027 13.6298 2.50488C13.4856 2.22949 13.2873 1.99219 13.0349 1.79297C12.7825 1.59375 12.4868 1.43262 12.1478 1.30957C11.8089 1.18652 11.4519 1.125 11.0769 1.125C10.7524 1.125 10.4459 1.16895 10.1575 1.25684C10.3666 1.46777 10.5325 1.67578 10.655 1.88086C10.7776 2.08594 10.8678 2.29102 10.9255 2.49609C10.9832 2.70117 11.0228 2.90918 11.0445 3.12012C11.0661 3.33105 11.0769 3.55664 11.0769 3.79688V4.5H13.8462V3.375ZM4.15385 4.5H9.69231V3.375C9.69231 3.07031 9.62019 2.78027 9.47596 2.50488C9.33173 2.22949 9.13341 1.99219 8.88101 1.79297C8.62861 1.59375 8.33293 1.43262 7.99399 1.30957C7.65505 1.18652 7.29808 1.125 6.92308 1.125C6.54087 1.125 6.18389 1.18359 5.85216 1.30078C5.52043 1.41797 5.22837 1.5791 4.97596 1.78418C4.72356 1.98926 4.52524 2.22949 4.38101 2.50488C4.23678 2.78027 4.16106 3.07031 4.15385 3.375V4.5ZM12.8293 16.875C12.5841 16.5234 12.4615 16.1484 12.4615 15.75V5.625H1.38462V15.75C1.38462 15.9082 1.42067 16.0547 1.49279 16.1895C1.5649 16.3242 1.66226 16.4414 1.78486 16.541C1.90745 16.6406 2.05529 16.7227 2.22837 16.7871C2.40144 16.8516 2.58173 16.8809 2.76923 16.875H12.8293ZM16.6154 5.625H13.8462V15.75C13.8462 15.9082 13.8822 16.0547 13.9543 16.1895C14.0264 16.3242 14.1238 16.4414 14.2464 16.541C14.369 16.6406 14.5168 16.7227 14.6899 16.7871C14.863 16.8516 15.0433 16.8809 15.2308 16.875C15.4255 16.875 15.6058 16.8457 15.7716 16.7871C15.9375 16.7285 16.0817 16.6494 16.2043 16.5498C16.3269 16.4502 16.4279 16.3301 16.5072 16.1895C16.5865 16.0488 16.6226 15.9023 16.6154 15.75V5.625Z" fill="white"/>
</svg>
