<svg width="24" height="24" viewBox="0 0 24 24" fill="none" xmlns="http://www.w3.org/2000/svg">
<path d="M8 8.5C8.69223 8.5 9.36892 8.70527 9.9445 9.08986C10.5201 9.47444 10.9687 10.0211 11.2336 10.6606C11.4985 11.3001 11.5678 12.0039 11.4327 12.6828C11.2977 13.3617 10.9644 13.9854 10.4749 14.4749C9.98539 14.9644 9.36175 15.2977 8.68282 15.4327C8.00388 15.5678 7.30015 15.4985 6.66061 15.2336C6.02107 14.9687 5.47444 14.5201 5.08986 13.9445C4.70527 13.3689 4.5 12.6922 4.5 12C4.5 11.0717 4.86875 10.1815 5.52513 9.52513C6.1815 8.86875 7.07174 8.5 8 8.5ZM8 13.5C8.29667 13.5 8.58668 13.412 8.83335 13.2472C9.08003 13.0824 9.27229 12.8481 9.38582 12.574C9.49935 12.2999 9.52906 11.9983 9.47118 11.7074C9.4133 11.4164 9.27044 11.1491 9.06066 10.9393C8.85088 10.7296 8.58361 10.5867 8.29264 10.5288C8.00166 10.4709 7.70006 10.5006 7.42598 10.6142C7.15189 10.7277 6.91762 10.92 6.7528 11.1666C6.58797 11.4133 6.5 11.7033 6.5 12C6.5 12.3978 6.65804 12.7794 6.93934 13.0607C7.22064 13.342 7.60218 13.5 8 13.5ZM8 5H16C17.8565 5 19.637 5.7375 20.9497 7.05025C22.2625 8.36301 23 10.1435 23 12C23 13.8565 22.2625 15.637 20.9497 16.9497C19.637 18.2625 17.8565 19 16 19H8C6.14348 19 4.36301 18.2625 3.05025 16.9497C1.7375 15.637 1 13.8565 1 12C1 10.1435 1.7375 8.36301 3.05025 7.05025C4.36301 5.7375 6.14348 5 8 5ZM8 17H16C17.3261 17 18.5979 16.4732 19.5355 15.5355C20.4732 14.5979 21 13.3261 21 12C21 10.6739 20.4732 9.40215 19.5355 8.46447C18.5979 7.52678 17.3261 7 16 7H8C6.67392 7 5.40215 7.52678 4.46447 8.46447C3.52678 9.40215 3 10.6739 3 12C3 13.3261 3.52678 14.5979 4.46447 15.5355C5.40215 16.4732 6.67392 17 8 17Z" fill="black"/>
</svg>
