<svg width="36" height="30" viewBox="0 0 36 30" fill="none" xmlns="http://www.w3.org/2000/svg">
<path d="M6.89608 18.3269C5.60139 19.4359 4.83691 20.9763 4.83691 22.6219C4.83691 23.6046 5.29389 24.509 6.04123 25.1492C6.78378 25.7852 7.76199 26.1219 8.75556 26.1219H26.2674C27.261 26.1219 28.2392 25.7852 28.9818 25.1492C29.7291 24.509 30.1861 23.6046 30.1861 22.6219C30.1861 20.9763 29.4216 19.4359 28.1269 18.3269C26.837 17.2221 25.1164 16.6219 23.3488 16.6219H11.6742C9.90656 16.6219 8.18599 17.2221 6.89608 18.3269Z" stroke="#2657E2" stroke-width="2" stroke-linejoin="round"/>
<path d="M17.5118 13.5C20.3311 13.5 22.8897 11.513 22.8897 8.75C22.8897 5.987 20.3311 4 17.5118 4C14.6924 4 12.1338 5.987 12.1338 8.75C12.1338 11.513 14.6924 13.5 17.5118 13.5Z" stroke="#2657E2" stroke-width="2"/>
</svg>
