<svg width="19" height="18" viewBox="0 0 19 18" fill="none" xmlns="http://www.w3.org/2000/svg">
<path d="M9.5 0C4.43333 0 0 3.86 0 9C0 11.12 0.78111 13.07 2.07944 14.61L0 16.59L1.48833 18L3.56778 16.03C5.25241 17.3045 7.34408 17.9992 9.5 18C11.9278 18 14.3661 17.12 16.2133 15.36C17.0981 14.5267 17.7999 13.5357 18.2782 12.4441C18.7564 11.3525 19.0018 10.1819 19 9V0H9.5ZM16.8889 9C16.8889 10.87 16.1183 12.63 14.725 13.95C14.0402 14.6018 13.2259 15.1185 12.3291 15.4704C11.4322 15.8223 10.4707 16.0023 9.5 16C5.42555 16 2.11111 12.86 2.11111 9C2.11111 7.1 2.89222 5.32 4.32778 4.01C5.70359 2.7186 7.56324 1.99592 9.5 2H16.8889V9Z" fill="white"/>
<path d="M5.76338 9.63001L10.0384 10.03L7.46283 13.36C7.34672 13.52 7.35727 13.74 7.50505 13.88C7.66338 14.03 7.92727 14.04 8.09616 13.89L13.5428 9.26001C13.8912 8.96001 13.7012 8.41001 13.2262 8.37001L8.95116 7.97001L11.5267 4.64C11.6428 4.48 11.6323 4.26 11.4845 4.12C11.4063 4.04652 11.3012 4.00446 11.1911 4.0026C11.0809 4.00073 10.9743 4.03921 10.8934 4.11001L5.44672 8.74001C5.10894 9.04001 5.29894 9.59001 5.76338 9.63001Z" fill="white"/>
</svg>
