<svg width="29" height="29" viewBox="0 0 29 29" fill="none" xmlns="http://www.w3.org/2000/svg">
<path d="M14.5 7.01475C13.7059 7.01475 12.9444 6.6993 12.3829 6.1378C11.8213 5.5763 11.5059 4.81473 11.5059 4.02065C11.5059 3.22656 11.8213 2.465 12.3829 1.9035C12.9444 1.342 13.7059 1.02655 14.5 1.02655C15.2941 1.02655 16.0556 1.342 16.6171 1.9035C17.1787 2.465 17.4941 3.22656 17.4941 4.02065C17.4941 4.81473 17.1787 5.5763 16.6171 6.1378C16.0556 6.6993 15.2941 7.01475 14.5 7.01475ZM14.5 7.01475V13.003M14.5 13.003C15.6911 13.003 16.8335 13.4761 17.6757 14.3184C18.518 15.1606 18.9912 16.303 18.9912 17.4941C18.9912 18.6852 18.518 19.8276 17.6757 20.6698C16.8335 21.5121 15.6911 21.9853 14.5 21.9853C13.3089 21.9853 12.1665 21.5121 11.3243 20.6698C10.482 19.8276 10.0088 18.6852 10.0088 17.4941C10.0088 16.303 10.482 15.1606 11.3243 14.3184C12.1665 13.4761 13.3089 13.003 14.5 13.003ZM6.56563 23.1829L10.7574 20.1888M22.4344 23.1829L18.2426 20.1888M1.02655 24.9794C1.02655 25.7734 1.342 26.535 1.9035 27.0965C2.465 27.658 3.22656 27.9735 4.02065 27.9735C4.81473 27.9735 5.5763 27.658 6.1378 27.0965C6.6993 26.535 7.01475 25.7734 7.01475 24.9794C7.01475 24.1853 6.6993 23.4237 6.1378 22.8622C5.5763 22.3007 4.81473 21.9853 4.02065 21.9853C3.22656 21.9853 2.465 22.3007 1.9035 22.8622C1.342 23.4237 1.02655 24.1853 1.02655 24.9794ZM21.9853 24.9794C21.9853 25.7734 22.3007 26.535 22.8622 27.0965C23.4237 27.658 24.1853 27.9735 24.9794 27.9735C25.7734 27.9735 26.535 27.658 27.0965 27.0965C27.658 26.535 27.9735 25.7734 27.9735 24.9794C27.9735 24.1853 27.658 23.4237 27.0965 22.8622C26.535 22.3007 25.7734 21.9853 24.9794 21.9853C24.1853 21.9853 23.4237 22.3007 22.8622 22.8622C22.3007 23.4237 21.9853 24.1853 21.9853 24.9794Z" stroke="white" stroke-width="2" stroke-linecap="round" stroke-linejoin="round"/>
</svg>
