<svg width="20" height="19" viewBox="0 0 20 19" fill="none" xmlns="http://www.w3.org/2000/svg">
<path d="M6.39237 12.9178H7.57987V7.20725H10.1603L12.375 12.9178H13.6539L16.3496 6.08225H14.978L13.0139 11.2089L11.0961 6.08225H3.37731V7.20725H6.39237V12.9178ZM2.41781 18.5C1.87156 18.5 1.41556 18.3267 1.04981 17.9802C0.683271 17.633 0.5 17.2006 0.5 16.6831V2.31687C0.5 1.79937 0.683271 1.36737 1.04981 1.02087C1.41556 0.673625 1.87156 0.5 2.41781 0.5H17.5822C18.1284 0.5 18.5844 0.673625 18.9502 1.02087C19.3167 1.36737 19.5 1.79937 19.5 2.31687V16.6831C19.5 17.2006 19.3171 17.6326 18.9514 17.9791C18.5848 18.3264 18.1284 18.5 17.5822 18.5H2.41781ZM2.41781 17.375H17.5822C17.7643 17.375 17.9317 17.303 18.0845 17.159C18.2365 17.0142 18.3125 16.8556 18.3125 16.6831V2.31687C18.3125 2.14437 18.2365 1.98575 18.0845 1.841C17.9317 1.697 17.7643 1.625 17.5822 1.625H2.41781C2.23573 1.625 2.06829 1.697 1.9155 1.841C1.7635 1.98575 1.6875 2.14437 1.6875 2.31687V16.6831C1.6875 16.8556 1.7635 17.0142 1.9155 17.159C2.06829 17.303 2.23573 17.375 2.41781 17.375Z" fill="black"/>
<path d="M1.6875 1.625V17.375M6.39237 12.9178H7.57987V7.20725H10.1603L12.375 12.9178H13.6539L16.3496 6.08225H14.978L13.0139 11.2089L11.0961 6.08225H3.37731V7.20725H6.39237V12.9178ZM2.41781 18.5C1.87156 18.5 1.41556 18.3268 1.04981 17.9803C0.683271 17.633 0.5 17.2006 0.5 16.6831V2.31687C0.5 1.79937 0.683271 1.36737 1.04981 1.02087C1.41556 0.673625 1.87156 0.5 2.41781 0.5H17.5822C18.1284 0.5 18.5844 0.673625 18.9502 1.02087C19.3167 1.36737 19.5 1.79937 19.5 2.31687V16.6831C19.5 17.2006 19.3171 17.6326 18.9514 17.9791C18.5848 18.3264 18.1284 18.5 17.5822 18.5H2.41781ZM2.41781 17.375H17.5822C17.7643 17.375 17.9317 17.303 18.0845 17.159C18.2365 17.0143 18.3125 16.8556 18.3125 16.6831V2.31687C18.3125 2.14437 18.2365 1.98575 18.0845 1.841C17.9317 1.697 17.7643 1.625 17.5822 1.625H2.41781C2.23573 1.625 2.06829 1.697 1.9155 1.841C1.7635 1.98575 1.6875 2.14437 1.6875 2.31687V16.6831C1.6875 16.8556 1.7635 17.0143 1.9155 17.159C2.06829 17.303 2.23573 17.375 2.41781 17.375Z" stroke="white"/>
</svg>
