<svg width="24" height="24" viewBox="0 0 24 24" fill="none" xmlns="http://www.w3.org/2000/svg">
<g clip-path="url(#clip0_35_54)">
<path d="M7.15649 10.4V5.6C7.15649 4.32696 7.65915 3.10606 8.55389 2.20589C9.44862 1.30572 10.6621 0.800003 11.9275 0.800003C13.1928 0.800003 14.4064 1.30572 15.3011 2.20589C16.1958 3.10606 16.6985 4.32696 16.6985 5.6V10.4M3.97583 10.4H19.8792C20.3009 10.4 20.7054 10.5686 21.0037 10.8686C21.3019 11.1687 21.4695 11.5757 21.4695 12V21.6C21.4695 22.0243 21.3019 22.4313 21.0037 22.7314C20.7054 23.0314 20.3009 23.2 19.8792 23.2H3.97583C3.55405 23.2 3.14954 23.0314 2.8513 22.7314C2.55305 22.4313 2.3855 22.0243 2.3855 21.6V12C2.3855 11.5757 2.55305 11.1687 2.8513 10.8686C3.14954 10.5686 3.55405 10.4 3.97583 10.4Z" stroke="black" stroke-opacity="0.3" stroke-width="2"/>
</g>
<defs>
<clipPath id="clip0_35_54">
<rect width="23.855" height="24" fill="white"/>
</clipPath>
</defs>
</svg>
