<svg width="100" height="93" viewBox="0 0 100 93" fill="none" xmlns="http://www.w3.org/2000/svg">
<mask id="mask0_234_773" style="mask-type:luminance" maskUnits="userSpaceOnUse" x="-1" y="24" width="101" height="70">
<path d="M-0.793416 24.9293H99.3709V93.1529H-0.793416V24.9293Z" fill="white"/>
</mask>
<g mask="url(#mask0_234_773)">
<path fill-rule="evenodd" clip-rule="evenodd" d="M4.6339 25.6896H30.3562C29.3159 26.4499 28.3348 27.2925 27.4204 28.2175C26.506 29.1463 25.6693 30.1417 24.903 31.2077C24.1366 32.2737 23.4554 33.3985 22.8594 34.5781C22.2634 35.7617 21.7599 36.9845 21.3489 38.2503C20.9343 39.5162 20.6196 40.8095 20.4012 42.1302C20.1828 43.447 20.0643 44.7756 20.0458 46.1159C20.0236 47.4563 20.105 48.7888 20.2864 50.1134C20.4678 51.4381 20.7455 52.7392 21.1231 54.0207C21.5007 55.2984 21.9709 56.5368 22.5299 57.736C23.0926 58.9353 23.7442 60.0797 24.4772 61.1731C25.2102 62.2626 26.021 63.2855 26.9095 64.2378C27.798 65.1941 28.7495 66.068 29.7712 66.8597C30.7893 67.6553 31.8592 68.3607 32.9847 68.9721C34.1101 69.5874 35.2726 70.1008 36.4758 70.5201C37.679 70.9355 38.9044 71.253 40.152 71.4646C41.4033 71.6762 42.6583 71.7821 43.9244 71.7821H80.7938L80.7567 71.8369C81.3824 71.8879 82.0043 71.9663 82.6189 72.076C83.2371 72.1857 83.848 72.3268 84.4514 72.4993C85.0549 72.6678 85.6509 72.8716 86.2396 73.0989C86.8245 73.3301 87.3983 73.5888 87.9647 73.8749C88.5275 74.1609 89.0754 74.4745 89.6122 74.8194C90.149 75.1603 90.6673 75.5248 91.1708 75.9206C91.6743 76.3125 92.1629 76.728 92.6294 77.1708C93.0959 77.6097 93.5401 78.0761 93.9659 78.5582C94.3916 79.0441 94.7951 79.5497 95.1765 80.0749C95.5578 80.6 95.9132 81.1448 96.2464 81.7052C96.5796 82.2656 96.8868 82.8417 97.1682 83.4335C97.4533 84.0214 97.7087 84.6249 97.9345 85.2441C98.1641 85.8594 98.364 86.4865 98.538 87.1214C98.712 87.7602 98.8564 88.4029 98.9748 89.0535C99.0896 89.7041 99.1784 90.3585 99.234 91.0169C99.2932 91.6754 99.3228 92.3377 99.3228 93H43.9244C42.9915 93 42.0623 92.9687 41.133 92.906C40.2038 92.8432 39.2783 92.7492 38.3527 92.6238C37.4309 92.4984 36.5128 92.3416 35.5984 92.1535C34.6839 91.9654 33.7732 91.7498 32.8736 91.499C31.974 91.2521 31.0781 90.9738 30.1933 90.6642C29.3122 90.3546 28.4348 90.0176 27.5722 89.6492C26.7096 89.2847 25.8544 88.8889 25.014 88.4617C24.1736 88.0384 23.3481 87.5878 22.5336 87.1057C21.7229 86.6237 20.9232 86.1181 20.142 85.5851C19.3572 85.0521 18.5909 84.4917 17.843 83.9038C17.0952 83.3199 16.3622 82.7085 15.6514 82.0736C14.9369 81.4387 14.2446 80.7803 13.5708 80.1023C12.9007 79.4204 12.2454 78.7149 11.6161 77.9899C10.9867 77.2649 10.3759 76.5202 9.79094 75.7521C9.20601 74.9879 8.64329 74.2041 8.10278 73.3967C7.56597 72.5933 7.05138 71.7742 6.5627 70.9355C6.07032 70.0968 5.60756 69.2425 5.17071 68.3724C4.73016 67.5024 4.31922 66.6167 3.9342 65.7192C3.54918 64.8218 3.19008 63.9125 2.86059 62.9915C2.5311 62.0706 2.22753 61.1378 1.95357 60.1972C1.67962 59.2566 1.43158 58.3043 1.21685 57.3441C0.998428 56.3879 0.80962 55.4238 0.65043 54.4518C0.491239 53.4799 0.361665 52.5041 0.258006 51.5243C0.158049 50.5445 0.08771 49.5608 0.0432837 48.5771C0.00256115 47.5934 -0.0085459 46.6058 0.00626255 45.6221C0.0247729 44.6345 0.0728996 43.6508 0.146943 42.6711C0.224687 41.6874 0.328347 40.7076 0.465324 39.7317C0.5986 38.7559 0.765196 37.7879 0.957705 36.8238C1.15022 35.8597 1.37234 34.9034 1.62409 33.9511C1.87583 33.0027 2.15349 32.0621 2.46076 31.1333C2.76804 30.2005 3.10123 29.2834 3.46404 28.3742C3.82684 27.465 4.21556 26.5714 4.6339 25.6896Z" fill="white"/>
</g>
<mask id="mask1_234_773" style="mask-type:luminance" maskUnits="userSpaceOnUse" x="6" y="0" width="83" height="69">
<path d="M6.78854 0H88.2942V68.0707H6.78854V0Z" fill="white"/>
</mask>
<g mask="url(#mask1_234_773)">
<path fill-rule="evenodd" clip-rule="evenodd" d="M43.9244 0C44.8537 0 45.7866 0.0313527 46.7158 0.0940582C47.6451 0.156764 48.5706 0.250822 49.4961 0.376233C50.4179 0.501644 51.3361 0.658407 52.2505 0.846523C53.1649 1.03464 54.0719 1.25019 54.9752 1.50101C55.8748 1.74791 56.7671 2.02617 57.6519 2.33578C58.5367 2.64147 59.4104 2.98243 60.2767 3.3469C61.1393 3.7153 61.9907 4.11113 62.8311 4.53439C63.6715 4.96157 64.5008 5.41226 65.3152 5.89431C66.126 6.37244 66.9257 6.88192 67.7068 7.41492C68.4916 7.94791 69.258 8.50834 70.0058 9.09229C70.7536 9.68015 71.4867 10.2876 72.1975 10.9225C72.912 11.5574 73.6043 12.2158 74.2781 12.8977C74.9481 13.5796 75.5997 14.2812 76.2328 15.0062C76.8621 15.7312 77.473 16.4798 78.0579 17.244C78.6428 18.0121 79.2056 18.796 79.7461 19.5994C80.2829 20.4028 80.7975 21.2258 81.2861 22.0645C81.7748 22.9032 82.2413 23.7575 82.6781 24.6276C83.1187 25.4976 83.5296 26.3794 83.9147 27.2769C84.2997 28.1743 84.6551 29.0836 84.9883 30.0046C85.3177 30.9255 85.6213 31.8583 85.8953 32.8028C86.1692 33.7434 86.4173 34.6918 86.632 35.652C86.8504 36.6121 87.0392 37.5762 87.1984 38.5482C87.3576 39.5162 87.4872 40.492 87.5908 41.4718C87.6908 42.4516 87.7611 43.4353 87.8056 44.419C87.8463 45.4066 87.8574 46.3903 87.8426 47.3779C87.8241 48.3616 87.776 49.3453 87.7019 50.329C87.6242 51.3087 87.5168 52.2885 87.3835 53.2644C87.2465 54.2402 87.0837 55.2082 86.8911 56.1762C86.6986 57.1403 86.4765 58.0966 86.2248 59.045C85.973 59.9934 85.6954 60.934 85.3881 61.8668C85.0808 62.7956 84.7439 63.7166 84.3811 64.6219C84.022 65.5311 83.6296 66.4247 83.2149 67.3065H57.4927C58.533 66.5462 59.514 65.7035 60.4284 64.7786C61.3429 63.8537 62.1795 62.8544 62.9459 61.7884C63.7122 60.7224 64.3934 59.5976 64.9895 58.418C65.5855 57.2344 66.089 56.0116 66.4999 54.7458C66.9145 53.4799 67.2292 52.1866 67.4477 50.8698C67.6661 49.5491 67.7845 48.2205 67.8031 46.8802C67.8253 45.5398 67.7438 44.2113 67.5624 42.8827C67.381 41.558 67.1034 40.2569 66.7257 38.9793C66.3481 37.6977 65.878 36.4593 65.3152 35.2601C64.7562 34.0608 64.1046 32.9164 63.3716 31.823C62.6386 30.7335 61.8278 29.7106 60.9393 28.7583C60.0508 27.802 59.0957 26.9281 58.0776 26.1364C57.0595 25.3408 55.9859 24.6393 54.8642 24.024C53.7387 23.4126 52.5763 22.8953 51.3731 22.476C50.1699 22.0606 48.9445 21.7431 47.6969 21.5315C46.4456 21.3199 45.1906 21.214 43.9244 21.214H7.05509C8.04726 19.5915 9.12828 18.0435 10.3055 16.5621C11.4791 15.0846 12.7341 13.6894 14.0743 12.3765C15.4145 11.0636 16.825 9.84084 18.3095 8.71606C19.7904 7.58736 21.3341 6.56447 22.9372 5.63957C24.5439 4.71858 26.195 3.90341 27.8943 3.19798C29.5936 2.49646 31.3298 1.90468 33.0958 1.43047C34.8654 0.952338 36.6572 0.595702 38.4675 0.356637C40.2816 0.117573 42.0993 0 43.9244 0Z" fill="white"/>
</g>
</svg>
