<svg width="24" height="24" viewBox="0 0 24 24" fill="none" xmlns="http://www.w3.org/2000/svg">
<mask id="path-1-inside-1_41_7" fill="white">
<path fill-rule="evenodd" clip-rule="evenodd" d="M8.20013 12C8.20013 11.0054 8.59284 10.0516 9.29185 9.34835C9.99086 8.64509 10.9389 8.25 11.9275 8.25C12.916 8.25 13.8641 8.64509 14.5631 9.34835C15.2621 10.0516 15.6548 11.0054 15.6548 12C15.6548 12.9946 15.2621 13.9484 14.5631 14.6517C13.8641 15.3549 12.916 15.75 11.9275 15.75C10.9389 15.75 9.99086 15.3549 9.29185 14.6517C8.59284 13.9484 8.20013 12.9946 8.20013 12ZM11.9275 9.75C11.3343 9.75 10.7655 9.98705 10.3461 10.409C9.92669 10.831 9.69107 11.4033 9.69107 12C9.69107 12.5967 9.92669 13.169 10.3461 13.591C10.7655 14.0129 11.3343 14.25 11.9275 14.25C12.5206 14.25 13.0894 14.0129 13.5089 13.591C13.9283 13.169 14.1639 12.5967 14.1639 12C14.1639 11.4033 13.9283 10.831 13.5089 10.409C13.0894 9.98705 12.5206 9.75 11.9275 9.75Z"/>
</mask>
<path fill-rule="evenodd" clip-rule="evenodd" d="M8.20013 12C8.20013 11.0054 8.59284 10.0516 9.29185 9.34835C9.99086 8.64509 10.9389 8.25 11.9275 8.25C12.916 8.25 13.8641 8.64509 14.5631 9.34835C15.2621 10.0516 15.6548 11.0054 15.6548 12C15.6548 12.9946 15.2621 13.9484 14.5631 14.6517C13.8641 15.3549 12.916 15.75 11.9275 15.75C10.9389 15.75 9.99086 15.3549 9.29185 14.6517C8.59284 13.9484 8.20013 12.9946 8.20013 12ZM11.9275 9.75C11.3343 9.75 10.7655 9.98705 10.3461 10.409C9.92669 10.831 9.69107 11.4033 9.69107 12C9.69107 12.5967 9.92669 13.169 10.3461 13.591C10.7655 14.0129 11.3343 14.25 11.9275 14.25C12.5206 14.25 13.0894 14.0129 13.5089 13.591C13.9283 13.169 14.1639 12.5967 14.1639 12C14.1639 11.4033 13.9283 10.831 13.5089 10.409C13.0894 9.98705 12.5206 9.75 11.9275 9.75Z" fill="black" fill-opacity="0.4"/>
<path d="M11.9275 8.25V6.25V8.25ZM15.6548 12H17.6548H15.6548ZM10.2001 12C10.2001 11.532 10.385 11.0855 10.7103 10.7583L7.87335 7.93843C6.80062 9.01768 6.20013 10.4789 6.20013 12H10.2001ZM10.7103 10.7583C11.0352 10.4314 11.4733 10.25 11.9275 10.25V6.25C10.4046 6.25 8.94649 6.85877 7.87335 7.93843L10.7103 10.7583ZM11.9275 10.25C12.3817 10.25 12.8197 10.4314 13.1446 10.7583L15.9816 7.93843C14.9085 6.85877 13.4504 6.25 11.9275 6.25V10.25ZM13.1446 10.7583C13.4699 11.0855 13.6548 11.532 13.6548 12H17.6548C17.6548 10.4789 17.0543 9.01768 15.9816 7.93843L13.1446 10.7583ZM13.6548 12C13.6548 12.468 13.4699 12.9145 13.1446 13.2417L15.9816 16.0616C17.0543 14.9823 17.6548 13.5211 17.6548 12H13.6548ZM13.1446 13.2417C12.8197 13.5686 12.3817 13.75 11.9275 13.75V17.75C13.4504 17.75 14.9085 17.1412 15.9816 16.0616L13.1446 13.2417ZM11.9275 13.75C11.4733 13.75 11.0352 13.5686 10.7103 13.2417L7.87335 16.0616C8.94649 17.1412 10.4046 17.75 11.9275 17.75V13.75ZM10.7103 13.2417C10.385 12.9145 10.2001 12.468 10.2001 12H6.20013C6.20013 13.5211 6.80062 14.9823 7.87335 16.0616L10.7103 13.2417ZM11.9275 7.75C10.8 7.75 9.72114 8.20073 8.92761 8.99909L11.7646 11.8189C11.8099 11.7734 11.8687 11.75 11.9275 11.75V7.75ZM8.92761 8.99909C8.13448 9.79704 7.69107 10.8767 7.69107 12H11.6911C11.6911 11.9298 11.7189 11.8649 11.7646 11.8189L8.92761 8.99909ZM7.69107 12C7.69107 13.1233 8.13448 14.203 8.92761 15.0009L11.7646 12.1811C11.7189 12.1351 11.6911 12.0702 11.6911 12H7.69107ZM8.92761 15.0009C9.72114 15.7993 10.8 16.25 11.9275 16.25V12.25C11.8687 12.25 11.8099 12.2266 11.7646 12.1811L8.92761 15.0009ZM11.9275 16.25C13.055 16.25 14.1338 15.7993 14.9273 15.0009L12.0904 12.1811C12.0451 12.2266 11.9862 12.25 11.9275 12.25V16.25ZM14.9273 15.0009C15.7205 14.203 16.1639 13.1233 16.1639 12H12.1639C12.1639 12.0702 12.136 12.1351 12.0904 12.1811L14.9273 15.0009ZM16.1639 12C16.1639 10.8767 15.7205 9.79704 14.9273 8.99909L12.0904 11.8189C12.136 11.8649 12.1639 11.9298 12.1639 12H16.1639ZM14.9273 8.99909C14.1338 8.20073 13.055 7.75 11.9275 7.75V11.75C11.9862 11.75 12.0451 11.7734 12.0904 11.8189L14.9273 8.99909Z" fill="black" fill-opacity="0.4" mask="url(#path-1-inside-1_41_7)"/>
<mask id="path-3-inside-2_41_7" fill="white">
<path fill-rule="evenodd" clip-rule="evenodd" d="M4.29686 10.646C3.8804 11.25 3.72733 11.723 3.72733 12C3.72733 12.277 3.8804 12.75 4.29686 13.354C4.70041 13.937 5.29877 14.57 6.05617 15.155C7.57394 16.327 9.65429 17.25 11.9275 17.25C14.2007 17.25 16.281 16.327 17.7988 15.155C18.5562 14.57 19.1545 13.937 19.5581 13.354C19.9746 12.75 20.1276 12.277 20.1276 12C20.1276 11.723 19.9746 11.25 19.5581 10.646C19.1545 10.063 18.5562 9.43 17.7988 8.845C16.281 7.673 14.2007 6.75 11.9275 6.75C9.65429 6.75 7.57394 7.673 6.05617 8.845C5.29877 9.43 4.70041 10.063 4.29686 10.646ZM5.14769 7.655C6.86823 6.327 9.25969 5.25 11.9275 5.25C14.5953 5.25 16.9867 6.327 18.7063 7.655C19.568 8.32 20.2797 9.062 20.7826 9.791C21.2717 10.5 21.6186 11.277 21.6186 12C21.6186 12.723 21.2707 13.5 20.7826 14.209C20.2797 14.938 19.568 15.679 18.7073 16.345C16.9877 17.673 14.5953 18.75 11.9275 18.75C9.25969 18.75 6.86823 17.673 5.14868 16.345C4.28692 15.68 3.57525 14.938 3.07231 14.209C2.58427 13.5 2.23639 12.723 2.23639 12C2.23639 11.277 2.58427 10.5 3.07231 9.791C3.57525 9.062 4.28692 8.321 5.14769 7.655Z"/>
</mask>
<path fill-rule="evenodd" clip-rule="evenodd" d="M4.29686 10.646C3.8804 11.25 3.72733 11.723 3.72733 12C3.72733 12.277 3.8804 12.75 4.29686 13.354C4.70041 13.937 5.29877 14.57 6.05617 15.155C7.57394 16.327 9.65429 17.25 11.9275 17.25C14.2007 17.25 16.281 16.327 17.7988 15.155C18.5562 14.57 19.1545 13.937 19.5581 13.354C19.9746 12.75 20.1276 12.277 20.1276 12C20.1276 11.723 19.9746 11.25 19.5581 10.646C19.1545 10.063 18.5562 9.43 17.7988 8.845C16.281 7.673 14.2007 6.75 11.9275 6.75C9.65429 6.75 7.57394 7.673 6.05617 8.845C5.29877 9.43 4.70041 10.063 4.29686 10.646ZM5.14769 7.655C6.86823 6.327 9.25969 5.25 11.9275 5.25C14.5953 5.25 16.9867 6.327 18.7063 7.655C19.568 8.32 20.2797 9.062 20.7826 9.791C21.2717 10.5 21.6186 11.277 21.6186 12C21.6186 12.723 21.2707 13.5 20.7826 14.209C20.2797 14.938 19.568 15.679 18.7073 16.345C16.9877 17.673 14.5953 18.75 11.9275 18.75C9.25969 18.75 6.86823 17.673 5.14868 16.345C4.28692 15.68 3.57525 14.938 3.07231 14.209C2.58427 13.5 2.23639 12.723 2.23639 12C2.23639 11.277 2.58427 10.5 3.07231 9.791C3.57525 9.062 4.28692 8.321 5.14769 7.655Z" fill="black" fill-opacity="0.4"/>
<path d="M4.29686 10.646L2.65239 9.50771L2.65033 9.51069L4.29686 10.646ZM4.29686 13.354L2.65033 14.4893L2.65239 14.4923L4.29686 13.354ZM6.05617 15.155L4.83361 16.7378L4.83381 16.738L6.05617 15.155ZM17.7988 15.155L19.0211 16.738L19.0213 16.7378L17.7988 15.155ZM19.5581 13.354L21.2026 14.4923L21.2046 14.4893L19.5581 13.354ZM19.5581 10.646L21.2046 9.51069L21.2026 9.50771L19.5581 10.646ZM17.7988 8.845L19.0213 7.26217L19.0211 7.26201L17.7988 8.845ZM6.05617 8.845L4.83381 7.26201L4.83361 7.26217L6.05617 8.845ZM5.14769 7.655L3.92566 6.07176L3.9238 6.0732L5.14769 7.655ZM18.7063 7.655L17.4838 9.2379L17.4844 9.23838L18.7063 7.655ZM20.7826 9.791L22.429 8.65544L22.4289 8.65525L20.7826 9.791ZM20.7826 14.209L22.4289 15.3447L22.4301 15.343L20.7826 14.209ZM18.7073 16.345L19.9297 17.9279L19.9311 17.9268L18.7073 16.345ZM5.14868 16.345L6.37115 14.7621L6.37054 14.7616L5.14868 16.345ZM3.07231 14.209L1.42487 15.343L1.42608 15.3447L3.07231 14.209ZM3.07231 9.791L1.42608 8.65525L1.42487 8.657L3.07231 9.791ZM2.65033 9.51069C2.1364 10.256 1.72733 11.1338 1.72733 12H5.72733C5.72733 12.1084 5.71321 12.1767 5.709 12.1954C5.70404 12.2174 5.70317 12.213 5.71573 12.1812C5.74142 12.1163 5.80622 11.9803 5.9434 11.7813L2.65033 9.51069ZM1.72733 12C1.72733 12.8662 2.1364 13.744 2.65033 14.4893L5.9434 12.2187C5.80622 12.0197 5.74142 11.8837 5.71573 11.8188C5.70317 11.787 5.70404 11.7826 5.709 11.8046C5.71321 11.8233 5.72733 11.8916 5.72733 12H1.72733ZM2.65239 14.4923C3.18802 15.2661 3.93602 16.0445 4.83361 16.7378L7.27872 13.5722C6.66153 13.0955 6.21281 12.6079 5.94134 12.2157L2.65239 14.4923ZM4.83381 16.738C6.62219 18.1189 9.121 19.25 11.9275 19.25V15.25C10.1876 15.25 8.5257 14.5351 7.27852 13.572L4.83381 16.738ZM11.9275 19.25C14.734 19.25 17.2328 18.1189 19.0211 16.738L16.5764 13.572C15.3293 14.5351 13.6674 15.25 11.9275 15.25V19.25ZM19.0213 16.7378C19.9189 16.0445 20.6669 15.2661 21.2026 14.4923L17.9136 12.2157C17.6421 12.6079 17.1934 13.0955 16.5762 13.5722L19.0213 16.7378ZM21.2046 14.4893C21.7186 13.744 22.1276 12.8662 22.1276 12H18.1276C18.1276 11.8916 18.1417 11.8233 18.1459 11.8046C18.1509 11.7826 18.1518 11.787 18.1392 11.8188C18.1135 11.8837 18.0487 12.0197 17.9116 12.2187L21.2046 14.4893ZM22.1276 12C22.1276 11.1338 21.7186 10.256 21.2046 9.51069L17.9116 11.7813C18.0487 11.9803 18.1135 12.1163 18.1392 12.1812C18.1518 12.213 18.1509 12.2174 18.1459 12.1954C18.1417 12.1767 18.1276 12.1084 18.1276 12H22.1276ZM21.2026 9.50771C20.6669 8.7339 19.9189 7.95546 19.0213 7.26217L16.5762 10.4278C17.1934 10.9045 17.6421 11.3921 17.9136 11.7843L21.2026 9.50771ZM19.0211 7.26201C17.2328 5.88106 14.734 4.75 11.9275 4.75V8.75C13.6674 8.75 15.3293 9.46494 16.5764 10.428L19.0211 7.26201ZM11.9275 4.75C9.121 4.75 6.62219 5.88106 4.83381 7.26201L7.27852 10.428C8.5257 9.46494 10.1876 8.75 11.9275 8.75V4.75ZM4.83361 7.26217C3.93602 7.95546 3.18802 8.7339 2.65239 9.50771L5.94134 11.7843C6.21281 11.3921 6.66153 10.9045 7.27872 10.4278L4.83361 7.26217ZM6.36972 9.23824C7.82024 8.11865 9.79338 7.25 11.9275 7.25V3.25C8.72601 3.25 5.91622 4.53535 3.92567 6.07176L6.36972 9.23824ZM11.9275 7.25C14.0616 7.25 16.0346 8.1187 17.4838 9.2379L19.9287 6.0721C17.9388 4.5353 15.1289 3.25 11.9275 3.25V7.25ZM17.4844 9.23838C18.2063 9.7954 18.7669 10.3911 19.1364 10.9267L22.4289 8.65525C21.7925 7.73287 20.9298 6.8446 19.9281 6.07162L17.4844 9.23838ZM19.1363 10.9266C19.5286 11.4954 19.6186 11.8672 19.6186 12H23.6186C23.6186 10.6868 23.0147 9.5046 22.429 8.65544L19.1363 10.9266ZM19.6186 12C19.6186 12.1319 19.5286 12.5035 19.1352 13.075L22.4301 15.343C23.0128 14.4965 23.6186 13.3141 23.6186 12H19.6186ZM19.1364 13.0733C18.7673 13.6083 18.2065 14.2037 17.4834 14.7632L19.9311 17.9268C20.9296 17.1543 21.7921 16.2677 22.4289 15.3447L19.1364 13.0733ZM17.4848 14.7621C16.0358 15.8812 14.0618 16.75 11.9275 16.75V20.75C15.1287 20.75 17.9396 19.4648 19.9297 17.9279L17.4848 14.7621ZM11.9275 16.75C9.79331 16.75 7.82034 15.8813 6.37115 14.7621L3.92622 17.9279C5.91612 19.4647 8.72608 20.75 11.9275 20.75V16.75ZM6.37054 14.7616C5.6487 14.2046 5.08807 13.6089 4.71854 13.0733L1.42608 15.3447C2.06243 16.2671 2.92515 17.1554 3.92683 17.9284L6.37054 14.7616ZM4.71974 13.075C4.32638 12.5035 4.23639 12.1319 4.23639 12H0.236389C0.236389 13.3141 0.842168 14.4965 1.42487 15.343L4.71974 13.075ZM4.23639 12C4.23639 11.8681 4.32638 11.4965 4.71974 10.925L1.42487 8.657C0.842168 9.50354 0.236389 10.6859 0.236389 12H4.23639ZM4.71854 10.9267C5.08765 10.3917 5.64845 9.7963 6.37158 9.2368L3.9238 6.0732C2.92539 6.8457 2.06285 7.73227 1.42608 8.65525L4.71854 10.9267Z" fill="black" fill-opacity="0.4" mask="url(#path-3-inside-2_41_7)"/>
</svg>
