<svg width="430" height="927" viewBox="0 0 430 927" fill="none" xmlns="http://www.w3.org/2000/svg">
<mask id="mask0_234_677" style="mask-type:luminance" maskUnits="userSpaceOnUse" x="-1" y="-5" width="151" height="65">
<path d="M-0.0713009 -4.29933H149.341V59.36H-0.0713009V-4.29933Z" fill="white"/>
</mask>
<g mask="url(#mask0_234_677)">
<path d="M0.645934 46.589C1.79203 47.2818 19.272 57.7614 37.1395 57.7614C47.5368 57.7614 58.0496 54.209 65.561 43.1432C87.007 11.4911 98.8802 -0.373934 116.904 8.06306C132.867 15.5587 143.347 13.889 148.039 3.17848C148.368 2.43248 148.352 1.26018 148.006 0.549696C147.659 -0.160788 147.107 -0.125261 146.785 0.620744C142.539 10.3366 132.612 11.5977 117.275 4.42183C97.0662 -5.04536 83.882 11.58 64.5798 40.0703C44.8406 69.2179 1.55291 43.2675 1.12416 43.0011C0.662424 42.7347 0.184198 43.303 0.0522734 44.2977C-0.0796511 45.2924 0.184198 46.3226 0.645934 46.589Z" fill="url(#paint0_linear_234_677)" fill-opacity="0.5"/>
</g>
<mask id="mask1_234_677" style="mask-type:luminance" maskUnits="userSpaceOnUse" x="-1" y="-5" width="187" height="119">
<path d="M-0.0713009 -4.29933H185.225V113.925H-0.0713009V-4.29933Z" fill="white"/>
</mask>
<g mask="url(#mask1_234_677)">
<path d="M83.9729 64.7597C58.2394 112.54 10.1364 113.073 1.35523 100.586C0.959452 100.017 0.423509 100.248 0.15966 101.101C-0.0959445 101.971 0.00299994 103.126 0.407018 103.694C3.79583 108.525 11.4804 111.492 21.2099 111.492C40.5038 111.492 67.771 99.7865 85.1025 67.5839C104.248 32.0597 134.846 67.9391 155.105 91.6693C161.99 99.7333 167.935 106.714 171.942 109.112C174.176 110.462 176.172 109.609 177.87 106.572C187.385 89.5378 184.029 5.30999 183.889 1.73981C183.84 0.709609 183.428 -0.0363968 182.949 0.0346516C182.471 0.141222 182.117 1.02933 182.158 2.05953C182.199 2.91211 185.588 87.9037 176.757 103.694C175.512 105.95 174.086 106.536 172.412 105.524C168.594 103.232 162.724 96.3585 155.938 88.3833C135.25 64.1736 104.009 27.5659 83.9729 64.7597Z" fill="url(#paint1_linear_234_677)" fill-opacity="0.5"/>
</g>
<mask id="mask2_234_677" style="mask-type:luminance" maskUnits="userSpaceOnUse" x="-1" y="-5" width="229" height="260">
<path d="M-0.0713009 -4.29933H227.441V254.885H-0.0713009V-4.29933Z" fill="white"/>
</mask>
<g mask="url(#mask2_234_677)">
<path d="M149.976 114.032C135.836 82.6106 124.416 83.4632 111.215 84.4223C107.587 84.6887 103.827 84.9729 99.878 84.5644C90.7752 83.5697 77.929 94.9908 65.4952 106.057C52.9788 117.158 40.0337 128.668 31.7802 126.518C15.1742 122.202 0.909874 126.483 0.761458 126.518C0.28323 126.678 -0.0465798 127.602 0.0193825 128.632C0.0935916 129.662 0.522346 130.355 1.00057 130.213C1.14074 130.177 15.1907 125.986 31.5741 130.213C40.2811 132.487 52.8469 121.314 66.1548 109.485C78.4155 98.5965 91.072 87.3353 99.7873 88.2767C103.819 88.703 107.612 88.4188 111.273 88.1701C124.07 87.211 135.118 86.3939 148.723 116.625C156.985 134.973 164.059 157.798 170.301 177.957C177.755 202.007 184.186 222.771 191.161 232.558C199.934 244.885 207.058 253.873 213.844 253.873C217.398 253.873 220.861 251.421 224.423 245.667C226.237 242.736 227.226 239.219 227.375 235.24C227.762 225.116 222.716 213.801 217.373 201.812C213.646 193.446 209.796 184.796 207.982 176.838C196.793 127.336 199.86 40.9762 203.051 2.21937C203.142 1.22469 202.82 0.247777 202.35 0.0523933C201.872 -0.125225 201.435 0.567494 201.344 1.56217C198.162 40.248 197.403 79.1825 199.143 114.174C200.429 139.947 203.15 163.979 206.424 178.455C208.353 186.963 212.302 195.826 216.12 204.387C220.952 215.258 225.965 226.484 225.643 234.92C225.528 237.833 224.794 240.373 223.376 242.665C213.927 257.94 204.857 247.318 192.093 229.396C185.423 220.018 179.074 199.556 171.736 175.844C165.461 155.595 158.337 132.629 149.976 114.032Z" fill="url(#paint2_linear_234_677)" fill-opacity="0.5"/>
</g>
<mask id="mask3_234_677" style="mask-type:luminance" maskUnits="userSpaceOnUse" x="-1" y="-5" width="248" height="315">
<path d="M-0.0713009 -4.29933H246.438V309.45H-0.0713009V-4.29933Z" fill="white"/>
</mask>
<g mask="url(#mask3_234_677)">
<path d="M1.28089 173.322C7.08556 166.874 11.4143 166.803 17.9446 166.714C28.3831 166.536 44.1481 166.306 78.9927 138.064C101.692 119.662 119.254 117.122 132.686 130.302C141.352 138.792 151.518 155.115 161.33 211.883C172.107 274.175 185.48 288.615 207.941 294.583C214.306 296.289 219.665 299.379 223.969 301.866C228.026 304.228 231.39 306.164 234.194 306.164C235.892 306.164 237.385 305.454 238.704 303.678C241.326 300.178 243.033 292.86 244.228 279.93C247.064 249.361 237.426 212.949 228.908 180.799C225.404 167.549 222.081 154.991 219.698 143.357C211.56 103.641 221.595 3.33834 221.702 2.34366C221.801 1.33122 221.512 0.336546 221.042 0.10564C220.564 -0.107505 220.111 0.53193 220.012 1.52661C219.583 5.7007 209.755 104.032 218.115 144.884C220.539 156.696 223.879 169.307 227.424 182.664C235.777 214.21 245.259 250 242.546 279.184C241.466 290.853 239.957 297.638 237.805 300.516C234.944 304.335 230.541 301.795 224.439 298.278C220.078 295.756 214.652 292.612 208.163 290.889C185.934 284.974 173.5 271.457 162.971 210.586C157.331 178.028 149.416 142.611 133.42 126.909C119.535 113.303 101.544 115.826 78.399 134.582C43.843 162.593 28.2594 162.842 17.9446 163.02C11.4061 163.126 6.6733 163.197 0.489338 170.036C0.0688283 170.497 -0.0960779 171.634 0.118301 172.558C0.324432 173.428 0.852131 173.783 1.28089 173.322Z" fill="url(#paint3_linear_234_677)" fill-opacity="0.5"/>
</g>
<mask id="mask4_234_677" style="mask-type:luminance" maskUnits="userSpaceOnUse" x="-1" y="154" width="318" height="774">
<path d="M-0.0713009 154.849H316.094V927.855H-0.0713009V154.849Z" fill="white"/>
</mask>
<g mask="url(#mask4_234_677)">
<path d="M220.012 852.082C227.639 865.99 250.272 883.308 271.215 878.246C286.221 874.622 298.053 860.661 306.389 836.807C321.668 793.041 314.767 758.138 308.682 727.374C304.757 707.516 301.046 688.742 302.935 668.866C308.154 613.928 305.573 593.129 291.869 579.896C279.254 567.676 269.277 553.732 255.706 484.975C248.606 448.971 239.174 438.297 231.596 429.7C225.025 422.24 220.267 416.858 219.773 397.497C218.643 353.429 212.814 333.518 180.591 302.576C164.125 286.768 156.919 258.882 149.952 231.937C143.479 206.928 136.8 181.084 122.775 166.412C106.425 149.307 94.7824 159.982 82.4557 171.297C72.9407 180.018 63.1123 189.059 50.4475 185.418C21.3005 177.052 0.687266 200.373 0.48938 200.604C0.0688697 201.084 -0.0877906 202.221 0.134832 203.126C0.357456 204.032 0.885153 204.37 1.30566 203.89C1.50355 203.659 21.6385 180.906 50.2167 189.112C63.3432 192.895 73.4024 183.659 83.1318 174.743C95.0792 163.783 106.375 153.41 122.017 169.769C135.555 183.943 141.814 208.153 148.443 233.766C155.55 261.262 162.888 289.681 179.898 306.022C211.536 336.395 216.936 354.673 218.058 397.728C218.61 419.184 223.994 425.295 230.813 433.003C238.143 441.316 247.271 451.654 254.131 486.45C266.779 550.571 276.154 568.795 291.177 583.306C304.064 595.775 306.323 614.798 301.253 668.138C299.257 689.186 303.066 708.458 307.107 728.866C313.291 760.181 319.697 792.544 305.021 834.587C296.99 857.588 285.554 871.052 271.042 874.551C248.837 879.915 227.268 860.413 221.15 849.258C213.712 835.705 187.789 792.792 166.599 809.986C148.517 824.658 130.889 785.563 120.351 762.206L119.403 760.11C106.812 732.259 78.8031 703.627 53.2097 738.849C38.1538 759.506 29.8426 782.313 32.4893 795.563C34.732 806.824 44.008 808.725 58.5939 800.927C83.4946 787.624 89.7858 806.647 99.3173 835.439C102.764 845.865 106.68 857.677 112.015 869.347C120.029 886.86 125.405 897.518 128.959 904.551C134.178 914.889 135.753 918.015 136.842 925.013C136.965 925.795 137.303 926.292 137.666 926.292C137.757 926.292 137.848 926.257 137.938 926.186C138.392 925.866 138.647 924.818 138.491 923.823C137.254 915.901 135.465 912.349 130.13 901.798C126.584 894.782 121.225 884.16 113.244 866.718C108.008 855.262 104.133 843.574 100.719 833.272C91.1298 804.32 84.212 783.396 58.1734 797.304C39.0361 807.517 34.9464 798.458 34.0724 794.089C32.2255 784.835 37.7086 764.568 54.1167 741.975C81.7466 703.911 109.69 744 118.125 762.686L119.081 764.799C128.234 785.084 142.589 816.949 158.37 816.931C161.272 816.931 164.208 815.865 167.176 813.45C187.492 796.966 212.756 838.849 220.012 852.082Z" fill="url(#paint4_linear_234_677)" fill-opacity="0.5"/>
</g>
<mask id="mask5_234_677" style="mask-type:luminance" maskUnits="userSpaceOnUse" x="-1" y="832" width="117" height="96">
<path d="M-0.0713009 832.366H115.569V927.855H-0.0713009V832.366Z" fill="white"/>
</mask>
<g mask="url(#mask5_234_677)">
<path d="M94.5268 885.333C82.703 885.901 81.7301 885.954 75.0432 851.123C73.4683 842.952 71.1102 838.192 68.0429 837.038C59.4514 833.805 47.4627 859.045 36.8758 884.143C26.2064 909.418 1.29738 899.241 1.04178 899.152C0.580046 898.956 0.118311 899.614 0.0276122 900.626C-0.0548417 901.638 0.250235 902.633 0.711971 902.811C1.77561 903.255 26.833 913.503 38.162 886.665C44.379 871.922 58.9319 837.411 67.7544 840.732C70.2279 841.674 72.0914 845.546 73.4354 852.562C80.114 887.322 81.491 889.685 94.5598 889.063C100.134 888.779 104.644 892.065 107.62 898.495C110.473 904.658 111.9 913.61 111.759 924.356C111.751 925.386 112.122 926.257 112.6 926.292C112.609 926.292 112.617 926.292 112.625 926.292C113.095 926.292 113.474 925.493 113.499 924.48C113.639 912.669 112.04 902.793 108.849 895.866C105.534 888.69 100.587 885.031 94.5268 885.333Z" fill="url(#paint5_linear_234_677)" fill-opacity="0.5"/>
</g>
<path d="M81.021 922.58C80.9551 922.544 73.996 920.537 67.0865 904.516C59.1215 886.043 53.1932 885.99 41.724 904.285C30.4774 922.242 23.1227 922.544 23.0567 922.544C22.5785 922.544 22.1909 923.397 22.1909 924.427C22.1909 925.44 22.5785 926.292 23.0567 926.292C23.3783 926.292 30.9887 926.061 42.7712 907.304C54.5866 888.459 59.237 891.798 65.8167 907.074C73.188 924.161 80.5098 926.221 80.8149 926.292C80.8479 926.292 80.8808 926.31 80.9221 926.31C81.3508 926.31 81.7219 925.617 81.7796 924.658C81.8373 923.61 81.4992 922.704 81.021 922.58Z" fill="url(#paint6_linear_234_677)" fill-opacity="0.5"/>
<path d="M25.8025 826.38C24.2111 825.652 22.2982 828.459 19.8741 831.993C16.9882 836.238 13.4015 841.514 10.0952 840.519C7.72055 839.809 6.60744 841.887 6.16219 843.183C5.39538 845.404 5.37065 848.547 6.07149 851.78C7.15987 856.718 10.3178 862.757 15.6855 863.414C15.9411 863.45 16.1802 863.45 16.4111 863.45C21.8447 863.45 24.7883 855.812 26.091 851.123C28.1853 843.539 28.7295 833.734 27.3196 828.814C26.9568 827.482 26.4456 826.665 25.8025 826.38ZM24.6069 849.205C23.4525 853.361 20.7646 860.288 15.7927 859.684C11.1836 859.116 8.52859 854.196 7.64634 850.164C7.23408 848.246 7.2011 846.452 7.56389 845.386C7.85248 844.551 8.41315 844.107 9.16348 844.107C9.3861 844.107 9.61697 844.142 9.87257 844.214C13.8468 845.386 17.7303 839.684 20.8635 835.102C22.694 832.419 24.5822 829.649 25.4479 830.039C25.5633 830.093 25.6953 830.235 25.8519 830.768C26.8001 834.071 26.528 842.277 24.6069 849.205Z" fill="url(#paint7_linear_234_677)" fill-opacity="0.5"/>
<path d="M429.409 802.384C429.862 802.029 430.093 800.963 429.928 799.986C429.764 799.027 429.261 798.512 428.824 798.867C420.892 805.084 410.197 828.618 395.191 872.935C389.048 891.052 378.577 903.006 366.448 905.688C355.828 908.051 345.703 902.651 340.03 891.603C327.926 868.068 315.096 858.921 291.779 890.91C266.029 926.239 244.327 919.01 230.656 906.736C224.654 901.336 219.055 894.09 213.646 887.091C202.763 873.006 192.497 859.702 179.016 859.702C178.95 859.702 178.884 859.702 178.827 859.702C174.176 859.738 170.969 862.97 169.27 869.294C164.439 887.251 173.987 923.788 174.399 925.333C174.556 925.937 174.852 926.292 175.157 926.292C175.306 926.292 175.454 926.221 175.578 926.044C175.998 925.546 176.147 924.409 175.908 923.504C175.817 923.148 166.442 887.269 170.779 871.176C172.148 866.079 174.861 863.485 178.843 863.45C178.901 863.45 178.959 863.45 179.024 863.45C192.027 863.45 202.103 876.505 212.764 890.306C218.231 897.375 223.887 904.693 230.005 910.182C244.055 922.811 266.342 930.253 292.719 894.072C315.195 863.255 327.044 871.354 338.884 894.391C344.92 906.114 355.556 911.887 366.638 909.418C379.253 906.63 390.17 894.125 396.601 875.155C411.385 831.46 421.815 808.334 429.409 802.384Z" fill="url(#paint8_linear_234_677)" fill-opacity="0.5"/>
<path d="M256.431 336.857C256.406 342.683 256.39 346.893 256.481 349.22C256.604 352.719 256.406 356.005 256.217 359.184C255.615 369.291 254.988 379.753 264.586 396.644C265.625 398.492 266.672 400.286 267.711 402.08C278.965 421.494 288.67 438.243 285.702 479.416C283.088 515.473 294.656 531.547 309.292 551.903C314.024 558.493 318.93 565.313 323.861 573.466C340.343 600.713 337.086 644.354 334.712 676.237C334.234 682.685 333.78 688.76 333.541 694.07C332.782 711.175 335.396 720.341 337.499 727.712C339.329 734.106 340.772 739.168 339.692 747.712C339.172 751.797 337.68 758.032 335.957 765.261C329.624 791.744 319.029 836.078 337.894 857.144C342.512 862.295 347.088 864.498 351.532 864.498C367.808 864.498 382.576 835.155 393.105 814.231C394.465 811.513 395.768 808.938 397.005 806.522C410.453 780.519 429.425 750.003 429.623 749.701C430.003 749.08 430.077 747.907 429.796 747.09C429.508 746.273 428.964 746.078 428.576 746.717C428.386 747.019 409.34 777.641 395.842 803.751C394.606 806.149 393.294 808.743 391.926 811.478C378.082 838.991 359.126 876.647 338.686 853.823C321.346 834.48 331.059 793.876 337.482 766.984C339.247 759.559 340.78 753.165 341.349 748.707C342.619 738.636 340.846 732.366 338.95 725.776C336.88 718.529 334.539 710.341 335.248 694.461C335.487 689.292 335.932 683.253 336.41 676.859C338.859 644.07 342.215 599.132 324.9 570.535C319.903 562.294 314.981 555.437 310.215 548.812C296.099 529.185 284.96 513.679 287.4 480.02C290.525 436.733 279.971 418.509 268.791 399.202C267.76 397.408 266.713 395.614 265.674 393.785C256.827 378.19 257.346 369.628 257.932 359.681C258.13 356.307 258.344 352.825 258.204 348.935C258.121 346.768 258.146 342.612 258.163 336.893C258.286 305.489 258.616 222.114 241.919 167.655C230.178 129.343 236.263 95.1684 242.142 62.1309C245.869 41.1894 249.39 21.4202 248.186 1.66876C248.12 0.638565 247.691 -0.0719172 247.213 0.0524141C246.735 0.194511 246.405 1.11814 246.463 2.14834C247.609 20.9584 244.17 40.3013 240.526 60.781C234.771 93.1258 228.24 129.804 240.485 169.716C256.885 223.233 256.555 305.774 256.431 336.857Z" fill="url(#paint9_linear_234_677)" fill-opacity="0.5"/>
<path d="M280.573 203.499C300.642 210.515 304.163 218.384 311.889 235.578C312.615 237.212 313.39 238.917 314.206 240.711C316.589 245.951 319.969 251.652 323.548 257.709C334.333 275.933 347.764 298.615 343.691 324.512C342.166 334.193 337.985 346.573 333.129 360.925C320.274 398.882 302.671 450.89 316.407 506.947C324.735 540.979 333.22 551.05 340.03 559.114C348.416 569.061 354.484 576.255 355.251 624.816C356.067 676.664 361.451 711.158 371.263 727.339C375.683 734.621 381.026 738.263 387.226 738.263C390.26 738.263 393.493 737.374 396.931 735.634C419.342 724.248 429.203 693.715 426.251 644.887C423.959 607.107 425.278 576.308 429.871 560.411C430.118 559.54 430.003 558.386 429.59 557.835C429.186 557.302 428.65 557.569 428.395 558.439C423.604 575.065 422.186 606.734 424.528 645.367C427.348 691.975 417.932 721.122 396.543 731.993C386.616 737.037 378.461 734.461 372.327 724.355C362.944 708.92 357.791 675.385 356.991 624.692C356.191 574.017 349.768 566.397 340.879 555.864C334.267 548.013 326.038 538.279 317.949 505.242C304.732 451.245 321.965 400.321 334.539 363.145C339.478 348.562 343.749 335.951 345.348 325.72C349.817 297.336 335.85 273.731 324.628 254.779C321.107 248.793 317.768 243.162 315.459 238.118C314.643 236.324 313.884 234.619 313.151 233.002C305.408 215.72 301.516 207.052 280.87 199.823C270.217 196.075 260.34 174.973 256.283 147.282C252.07 118.526 255.013 90.7811 264.363 71.154C286.353 25.0081 279.023 1.79307 278.694 0.816155C278.421 -0.0186648 277.886 -0.196283 277.49 0.389864C277.102 0.993773 277.012 2.14831 277.284 2.98313C277.3 3.05418 278.974 8.36504 278.125 18.9335C277.325 28.898 274.076 45.5589 263.151 68.4897C253.463 88.8273 250.272 118.721 254.626 148.401C258.855 177.407 269.294 199.538 280.573 203.499Z" fill="url(#paint10_linear_234_677)" fill-opacity="0.5"/>
<path d="M274.81 138.934C276.772 152.007 281.283 161.226 288.225 166.252C305.161 178.579 315.599 205.293 322.509 222.949C323.911 226.555 325.123 229.663 326.252 232.274C328.545 237.62 333.624 242.985 339.519 249.219C351.153 261.51 367.075 278.367 369.433 304.619C372.302 336.591 354.995 377.23 343.551 404.104C340.954 410.179 338.711 415.454 337.062 419.788C331.826 433.518 329.765 452.115 331.678 468.261C333.03 479.647 336.963 495.242 347.979 504.816C366.671 521.015 366.671 521.015 366.629 593.555V603.146C366.629 642.116 369.977 668.067 376.862 682.436C382.856 694.976 390.821 697.392 398.217 697.392C399.124 697.392 400.023 697.357 400.897 697.303C403.577 697.108 405.803 694.905 407.526 690.731C413.941 675.065 412.11 633.662 410.494 597.125C409.744 580.002 409.018 563.839 409.258 552.294C410.066 511.956 429.302 490.57 429.5 490.357C429.92 489.895 430.093 488.759 429.879 487.853C429.665 486.929 429.145 486.556 428.716 487.036C428.519 487.249 408.375 509.594 407.534 552.151C407.295 563.928 408.021 580.233 408.779 597.48C410.354 633.271 412.152 673.804 406.232 688.262C404.83 691.708 403.065 693.431 400.856 693.573C393.113 694.088 384.332 692.845 378.074 679.772C371.544 666.113 368.369 641.051 368.369 603.146V593.555C368.402 519.895 368.402 518.492 348.63 501.334C338.274 492.347 334.613 477.87 333.36 467.32C331.579 452.311 333.508 435.01 338.406 422.151C340.03 417.906 342.256 412.666 344.829 406.609C356.513 379.184 374.174 337.728 371.131 303.908C368.608 275.827 352.233 258.509 340.269 245.862C334.531 239.805 329.583 234.565 327.522 229.752C326.425 227.194 325.222 224.121 323.828 220.569C316.795 202.576 306.167 175.4 288.769 162.735C282.371 158.082 278.232 149.698 276.451 137.797C273.013 114.796 279.048 84.742 285.859 64.3156C297.963 27.9034 292.842 2.21938 292.62 1.15365C292.422 0.230023 291.911 -0.196267 291.474 0.230023C291.037 0.638552 290.839 1.75756 291.028 2.69895C291.086 2.92986 295.934 27.6014 284.441 62.1487C277.416 83.3033 271.182 114.6 274.81 138.934Z" fill="url(#paint11_linear_234_677)" fill-opacity="0.5"/>
<path d="M327.044 133.161C330.622 137.336 333.698 143.179 336.666 148.845C342.636 160.213 348.803 171.954 359.472 171.155L361.237 170.995C371.107 170.178 383.384 169.147 391.052 185.169C395.983 195.489 398.448 212.114 398.357 234.583C398.126 294.246 408.392 331.369 428.865 344.868C428.955 344.921 429.038 344.939 429.12 344.939C429.491 344.939 429.829 344.406 429.945 343.607C430.085 342.612 429.829 341.582 429.376 341.28C409.727 328.314 399.866 292.416 400.097 234.601C400.188 211.084 397.557 193.535 392.264 182.487C384.068 165.346 371.37 166.412 361.179 167.247L359.415 167.407C349.479 168.188 343.798 157.407 337.82 146.021C334.778 140.231 331.628 134.227 327.868 129.858C317.116 117.389 312.705 89.3779 316.886 60.1415C321.379 28.6493 315.847 2.20156 315.616 1.08255C315.418 0.158919 314.898 -0.26737 314.461 0.176681C314.033 0.602971 313.843 1.70422 314.041 2.64561C314.09 2.91204 319.524 28.9157 315.228 59.0402C310.784 90.0706 315.542 119.84 327.044 133.161Z" fill="url(#paint12_linear_234_677)" fill-opacity="0.5"/>
<path d="M333.269 61.7403C331.546 86.1809 335.677 112.487 343.543 127.158C347.179 133.961 352.827 140.693 360.915 140.693C364.205 140.693 367.899 139.574 372.014 136.909C379.459 132.078 386.187 126.004 392.124 120.639C408.606 105.755 419.498 95.9145 428.387 125.364C428.65 126.217 429.186 126.465 429.582 125.897C429.986 125.346 430.093 124.192 429.838 123.321C420.15 91.2609 408.111 102.149 391.448 117.211C385.552 122.522 378.874 128.579 371.511 133.339C357.997 142.096 349.455 133.286 344.664 124.334C337.235 110.462 333.343 85.5237 334.976 62.3087C337.779 22.415 330.391 1.63336 330.07 0.745254C329.773 -0.0540393 329.229 -0.196134 328.858 0.425536C328.479 1.06498 328.413 2.23727 328.709 3.05433C328.784 3.2497 335.957 23.5518 333.269 61.7403Z" fill="url(#paint13_linear_234_677)" fill-opacity="0.5"/>
<path d="M429.524 174.832C429.096 174.352 428.576 174.689 428.354 175.595C427.694 178.242 412.226 240.729 416.217 264.015C416.909 268.065 417.511 271.884 418.039 275.241C420.521 291.031 422.145 301.457 428.865 306.058C428.956 306.111 429.038 306.147 429.129 306.147C429.491 306.147 429.838 305.649 429.945 304.85C430.093 303.855 429.846 302.807 429.384 302.488C423.505 298.473 422.145 289.788 419.68 274.051C419.144 270.676 418.542 266.821 417.849 262.736C414.13 241.013 429.731 178.011 429.887 177.372C430.102 176.448 429.945 175.311 429.524 174.832Z" fill="url(#paint14_linear_234_677)" fill-opacity="0.5"/>
<path d="M354.319 84.6533C360.627 91.4384 371.404 98.2768 381.281 98.2768C388.611 98.2768 395.439 94.529 399.602 84.2092C409.2 60.408 417.387 54.511 428.832 63.1611C429.285 63.4986 429.772 62.9835 429.929 62.0244C430.085 61.0474 429.854 59.9817 429.401 59.6442C417.165 50.3902 408.441 56.5892 398.291 81.758C389.139 104.458 365.64 92.664 355.103 81.314C344.062 69.4134 345.274 2.6457 345.291 1.9885C345.307 0.958303 344.944 0.0701984 344.458 0.0346719C343.963 0.016911 343.576 0.780683 343.559 1.82864C343.493 4.67058 342.273 71.6869 354.319 84.6533Z" fill="url(#paint15_linear_234_677)" fill-opacity="0.5"/>
<path d="M376.598 58.5964C377.67 59.1115 378.733 59.3246 379.797 59.3246C388.455 59.3246 397.013 44.2268 400.509 32.4506C407.147 10.1591 428.955 6.96196 429.17 6.9442C429.648 6.89092 430.011 6.00281 429.986 4.97261C429.961 3.94241 429.557 3.14311 429.063 3.21416C428.139 3.3385 406.166 6.53567 399.05 30.4434C395.241 43.2499 385.453 58.8983 376.969 54.9374C369.4 51.4205 364.288 32.9834 362.185 1.63334C362.119 0.603133 361.682 -0.107348 361.204 0.0347486C360.726 0.194606 360.404 1.13599 360.47 2.14844C363.265 43.9071 370.785 55.8965 376.598 58.5964Z" fill="url(#paint16_linear_234_677)" fill-opacity="0.5"/>
<path d="M386.451 10.1769C386.855 10.4255 387.317 10.5676 387.836 10.5676C389.494 10.5676 391.695 8.96906 394.276 3.21414C394.606 2.46813 394.597 1.29583 394.259 0.585349C393.913 -0.125135 393.369 -0.107372 393.039 0.620873C390.821 5.55874 388.694 7.61914 386.905 6.57117C385.61 5.8074 384.703 3.44505 384.489 1.47345C384.373 0.461015 383.911 -0.1429 383.441 0.0880102C382.972 0.336677 382.683 1.34912 382.798 2.36156C383.128 5.27454 384.414 8.98682 386.451 10.1769Z" fill="url(#paint17_linear_234_677)" fill-opacity="0.5"/>
<path d="M351.194 468.741C356.48 482.933 361.666 487.16 365.838 490.553C369.664 493.679 372.698 496.165 374.57 505.242C377.076 517.373 384.695 530.038 392.19 530.038C392.322 530.038 392.454 530.038 392.586 530.02C396.89 529.754 402.752 525.242 406.281 505.117C413.356 464.904 429.417 442.506 429.582 442.293C429.994 441.725 430.102 440.588 429.854 439.7C429.59 438.829 429.055 438.581 428.659 439.131C428.494 439.362 411.954 462.364 404.673 503.785C402.142 518.155 397.953 525.935 392.544 526.272C385.577 526.698 378.486 514.922 376.161 503.679C373.993 493.199 370.497 490.339 366.448 487.036C362.268 483.608 357.527 479.753 352.547 466.361C344.623 445.082 357.601 421.351 369.062 400.41C371.156 396.591 373.135 392.968 374.908 389.486C381.487 376.609 380.853 362.701 380.226 349.237C379.723 338.349 379.204 327.088 382.337 315.649C383.846 310.161 385.536 307.425 387.515 307.23C393.319 306.75 400.715 328.793 405.11 342.026L405.803 344.104C412.16 363.11 428.255 370.587 428.931 370.907C429.401 371.12 429.863 370.481 429.961 369.468C430.052 368.474 429.755 367.479 429.294 367.266C429.137 367.195 413.166 359.77 407.213 341.937L406.528 339.859C401.688 325.33 394.416 303.5 387.721 303.5C387.63 303.5 387.531 303.5 387.441 303.518C384.868 303.766 382.65 307.212 380.853 313.767C377.414 326.235 377.959 338.118 378.503 349.61C379.105 362.737 379.682 375.117 373.745 386.733C371.997 390.161 370.027 393.749 367.94 397.568C356.471 418.563 342.207 444.638 351.194 468.741Z" fill="url(#paint18_linear_234_677)" fill-opacity="0.5"/>
<path d="M410.857 371.831C395.496 364.246 392.536 373.199 389.757 387.728C388.487 394.406 387.16 401.334 383.26 405.508C375.724 413.625 370.018 429.22 369.086 444.336C368.435 454.78 370.051 464.052 373.745 471.21C376.895 477.284 380.506 480.411 384.274 480.411C384.942 480.411 385.61 480.322 386.286 480.126C392.981 478.155 398.415 467.249 401.02 458.51C404.656 446.343 408.862 438.421 414.683 427.462C416.208 424.584 417.832 421.547 419.564 418.172C423.39 410.765 423.382 402.47 422.705 396.822C421.221 384.637 415.384 374.051 410.857 371.831ZM418.385 415.419C416.662 418.758 415.037 421.796 413.52 424.655C407.814 435.401 403.313 443.892 399.544 456.503C397.137 464.567 392.157 474.638 386.039 476.414C382.007 477.604 378.263 474.904 374.899 468.421C371.642 462.151 370.232 453.998 370.793 444.851C371.659 430.89 376.985 416.449 384.019 408.865C388.504 404.034 390.013 396.129 391.349 389.131C393.039 380.268 394.465 372.79 401.474 372.79C403.782 372.79 406.71 373.625 410.453 375.472C414.402 377.408 419.704 387.071 420.99 397.764C421.823 404.531 420.941 410.463 418.385 415.419Z" fill="url(#paint19_linear_234_677)" fill-opacity="0.5"/>
<path d="M381.529 246.963C382.056 239.166 382.419 213.198 365.129 206.377C360.957 204.725 359.242 201.386 357.246 197.514C354.707 192.593 351.821 186.998 343.46 184.387C338.777 182.931 336.122 184.618 335.553 189.432C334.506 198.384 342.405 213.748 347.748 217.958C348.754 218.739 349.718 219.45 350.634 220.125C356.669 224.565 360.668 227.478 364.189 244.867C366.679 257.123 370.934 262.327 374.38 262.327C374.702 262.327 375.015 262.292 375.328 262.185C378.626 261.208 380.952 255.525 381.529 246.963ZM365.772 243.34C361.954 224.476 357.436 221.137 351.186 216.572C350.279 215.897 349.331 215.205 348.341 214.423C343.097 210.32 336.559 196.146 337.235 190.338C337.441 188.544 338.604 187.602 340.508 187.602C341.284 187.602 342.182 187.762 343.213 188.064C351.046 190.515 353.61 195.489 356.084 200.284C358.178 204.352 360.157 208.189 364.824 210.036C368.806 211.599 381.661 218.881 379.805 246.43C379.344 253.34 377.62 257.727 375.081 258.455C372.146 259.326 368.13 254.956 365.772 243.34Z" fill="url(#paint20_linear_234_677)" fill-opacity="0.5"/>
<path d="M272.27 367.071C273.029 384.371 278.471 398.438 286.856 404.673C289.635 406.751 292.488 407.746 295.209 407.746C300.189 407.746 304.699 404.389 307.461 398.119C308.22 396.378 308.954 394.762 309.646 393.216C316.605 377.657 320.448 369.06 326.269 325.809C332.791 277.425 302.572 244.743 290.377 236.235C281.827 230.249 277.432 235.525 275.247 240.995C271.347 250.764 271.512 268.651 275.667 286.537C279.114 301.369 277.432 311.973 275.305 325.418C273.524 336.662 271.512 349.397 272.27 367.071ZM277.218 284.868C273.433 268.562 273.169 251.901 276.558 243.429C278.174 239.379 280.524 237.336 283.492 237.336C285.364 237.336 287.483 238.153 289.825 239.787C296.116 244.175 306.2 254.317 313.942 268.402C323.663 286.129 327.242 305.081 324.595 324.744C318.881 367.124 315.154 375.472 308.385 390.588C307.684 392.168 306.958 393.785 306.191 395.525C302.382 404.211 294.665 406.502 287.417 401.121C279.699 395.401 274.686 382.524 273.994 366.715C273.268 349.824 275.214 337.497 276.937 326.609C279.106 312.932 280.977 301.084 277.218 284.868Z" fill="url(#paint21_linear_234_677)" fill-opacity="0.5"/>
<path d="M297.979 352.683C298.095 352.683 298.218 352.666 298.334 352.648C301.747 352.026 304.386 342.896 306.942 334.069C307.305 332.79 307.667 331.546 308.022 330.339C309.621 324.974 309.861 318.687 308.706 312.612C307.263 304.939 303.685 298.491 299.834 296.555C296.206 294.743 293.222 297.301 291.441 303.766C288.332 314.974 289.371 337.372 293.452 347.301C294.912 350.889 296.437 352.683 297.979 352.683ZM292.941 305.703C294.038 301.742 295.613 299.752 297.633 299.752C298.202 299.752 298.804 299.912 299.447 300.232C302.778 301.884 305.853 307.443 307.115 314.051C307.775 317.514 308.212 322.843 306.579 328.349C306.208 329.593 305.845 330.836 305.474 332.133C303.256 339.806 300.741 348.509 298.194 348.953C297.089 349.149 295.967 347.816 294.763 344.868C291.457 336.822 289.981 316.378 292.941 305.703Z" fill="url(#paint22_linear_234_677)" fill-opacity="0.5"/>
<path d="M376.153 758.814C371.898 758.085 368.649 761.638 364.898 765.723C363.1 767.695 361.253 769.702 359.035 771.62C354.311 775.705 348.853 785.901 347.55 797.535C346.791 804.302 347.55 810.75 349.751 816.203C352.398 822.739 354.781 825.901 357.271 826.114C357.362 826.114 357.461 826.132 357.56 826.132C361.22 826.132 364.667 819.613 368.443 811.762C374.141 799.915 380.349 773.148 378.659 763.005C378.23 760.501 377.348 759.027 376.153 758.814ZM367.231 809.045C362.985 817.89 360.14 822.597 357.337 822.366C355.366 822.171 353.371 819.436 351.054 813.716C349.215 809.169 348.605 804 349.224 798.387C350.378 788.103 355.465 778.707 359.67 775.084C361.963 773.094 363.933 770.963 365.681 769.044C369.029 765.386 371.733 762.437 375.031 762.437C375.353 762.437 375.674 762.455 376.012 762.508C376.532 762.615 376.837 763.112 377.018 764.231C378.321 772.064 372.731 797.606 367.231 809.045Z" fill="url(#paint23_linear_234_677)" fill-opacity="0.5"/>
<path d="M236.115 656.894C244.847 663.164 252.16 673.733 255.203 684.514C256.835 690.269 260.348 693.786 264.421 693.786C264.512 693.786 264.619 693.786 264.709 693.786C268.832 693.626 272.287 690.038 273.73 684.461C276.797 672.578 272.897 647.374 266.144 635.42C260.15 624.816 255.005 624.745 243.511 629.861C235.587 633.395 230.928 639.292 230.747 646.024C230.673 649.168 231.539 653.608 236.115 656.894ZM243.874 633.537C248.639 631.406 252.16 630.376 254.955 630.376C259.507 630.376 262.12 633.093 265.047 638.315C270.514 647.978 275.057 671.655 272.221 682.649C271.091 687.001 268.139 689.914 264.685 690.056C261.114 690.216 258.039 687.356 256.687 682.578C253.446 671.104 245.77 659.896 236.667 653.36C233.946 651.406 232.421 648.83 232.495 646.273C232.594 642.383 236.156 636.965 243.874 633.537Z" fill="url(#paint24_linear_234_677)" fill-opacity="0.5"/>
<path d="M234.787 757.002C236.222 757.002 236.923 755.563 237.228 754.639C237.863 752.65 237.846 749.808 237.187 746.806C236.263 742.614 233.847 737.534 230.096 736.984C224.217 736.131 221.628 737.392 221.479 741.247C221.232 747.89 231.324 756.309 234.301 756.948C234.466 756.984 234.631 757.002 234.787 757.002ZM223.219 741.637C223.417 741.282 224.563 739.915 229.98 740.696C232.784 741.105 234.829 744.87 235.62 748.423C235.991 750.074 236.065 751.691 235.801 752.472C235.538 753.307 234.853 753.289 234.466 753.218C230.945 752.49 223.59 744.444 223.219 741.637Z" fill="url(#paint25_linear_234_677)" fill-opacity="0.5"/>
<mask id="mask6_234_677" style="mask-type:luminance" maskUnits="userSpaceOnUse" x="-1" y="186" width="244" height="379">
<path d="M-0.0713009 186.679H242.216V564.088H-0.0713009V186.679Z" fill="white"/>
</mask>
<g mask="url(#mask6_234_677)">
<path d="M18.2744 406.733C29.6117 454.211 52.616 470.73 70.3599 466.005C78.7206 463.785 84.7149 456.876 85.6301 448.385C88.7716 419.433 98.5835 403.98 115.626 401.192C127.731 399.185 132.702 411.92 138.474 426.662C142.374 436.627 146.794 447.906 153.984 455.65C166.516 469.149 167.085 471.831 169.847 484.709C170.919 489.7 172.247 495.899 174.613 504.656C183.312 536.894 215.411 561.104 225.94 561.104C226.163 561.104 226.377 561.086 226.591 561.068C231.308 560.553 237.31 553.111 239.668 539.914C243.535 518.297 235.389 496.272 230.195 485.064C223.64 470.926 217.917 462.684 212.88 455.402C202.936 441.032 196.372 431.547 194.064 388.243C191.161 333.802 184.788 331.475 172.09 326.804C169.204 325.738 165.931 324.548 162.303 322.523C143.405 312.061 141.195 302.328 136.009 246.342C133.387 218.047 125.644 204.175 119.601 197.514C109.187 186.057 97.157 188.011 90.3877 194.69C82.0105 202.913 70.0053 205.08 57.2911 207.354C51.7833 208.349 46.0858 209.361 40.6274 210.924C22.9413 215.969 0.893385 228.349 0.670762 228.491C0.209026 228.739 -0.0630688 229.77 0.0523661 230.764C0.176044 231.759 0.654272 232.345 1.11601 232.079C1.33038 231.954 23.2793 219.645 40.8583 214.619C46.2754 213.073 51.9482 212.061 57.4313 211.084C70.3104 208.757 82.464 206.59 91.1133 198.082C97.5198 191.777 108.915 189.965 118.817 200.871C126.98 209.858 132.348 225.844 134.319 247.088C139.604 304.193 142.127 315.241 161.874 326.165C165.576 328.225 168.891 329.433 171.81 330.499C184.021 335.01 189.595 337.035 192.357 388.687C194.756 433.714 201.584 443.572 211.94 458.51C216.911 465.704 222.56 473.839 228.991 487.729C237.45 505.97 240.674 524.016 238.077 538.581C235.975 550.304 230.681 556.894 226.517 557.356C218.008 558.297 184.796 534.887 176.139 502.791C173.813 494.176 172.502 488.084 171.455 483.164C168.561 469.629 167.869 466.414 154.792 452.329C147.923 444.94 143.809 434.425 139.835 424.265C134.005 409.398 128.522 395.366 115.528 397.479C97.8744 400.375 87.2545 417.231 83.9728 447.568C83.2308 454.407 77.6817 460.322 70.1702 462.329C53.0036 466.876 30.7908 450.943 19.841 405.046C11.2824 369.184 12.2306 347.852 12.981 330.712C13.822 311.671 14.4321 297.941 1.40459 277.408C1.01707 276.786 0.481119 276.981 0.192536 277.816C-0.0878047 278.669 -0.00535136 279.823 0.382177 280.427C12.6099 299.699 12.074 311.902 11.2577 330.374C10.4579 347.959 9.48497 369.877 18.2744 406.733Z" fill="url(#paint26_linear_234_677)" fill-opacity="0.5"/>
</g>
<path d="M33.6684 347.941C33.7921 374.069 33.9323 403.66 46.9681 418.456C50.6867 422.684 54.1992 424.478 57.5303 424.478C68.2326 424.478 76.9974 405.987 84.3934 390.392C88.145 382.47 91.6905 375.01 95.0216 370.783C106.87 355.738 132.694 367.692 143.314 387.621C151.625 403.216 159.706 410.374 165.494 407.266C168.949 405.401 171.48 400.09 173.022 391.405C174.531 382.896 174.374 375.152 172.568 368.314C169.171 355.561 160.168 346.449 145.78 341.244C128.225 334.868 121.332 318.349 121.2 282.221C121.085 246.945 118.199 227.833 102.789 221.261C91.9461 216.626 84.8304 223.286 77.2942 230.373C74.194 233.286 70.9783 236.288 67.3999 238.58C61.7354 242.203 53.4488 241.51 45.4262 240.835C36.0925 240.018 28.0204 239.326 24.4584 245.223C22.6197 248.26 21.5314 252.665 21.2263 258.366C20.5337 271.12 23.939 289.61 29.9086 305.436C33.5117 314.974 33.586 330.978 33.6684 347.941ZM22.9495 258.811C23.2051 254.157 24.0709 250.587 25.5138 248.189C27.5009 244.903 31.6153 244.032 36.6202 244.032C39.3412 244.032 42.3177 244.299 45.3602 244.565C53.5148 245.258 61.958 245.986 67.8946 242.167C71.572 239.823 74.8289 236.75 77.9868 233.802C85.2591 226.963 92.1357 220.533 102.451 224.938C116.773 231.066 119.353 248.295 119.469 282.292C119.601 320.143 127.137 338.296 145.483 344.939C159.137 349.877 167.976 358.598 171.051 370.179C172.593 375.987 172.7 382.683 171.398 390.072C170.07 397.515 167.935 402.097 165.065 403.643C159.912 406.413 152.211 399.38 144.452 384.815C139.027 374.637 129.85 366.236 119.914 362.399C109.344 358.296 99.944 360.179 94.1393 367.55C90.6268 372.008 87.0071 379.628 83.1813 387.728C73.4107 408.332 62.329 431.671 47.7761 415.152C35.6555 401.387 35.5318 374.193 35.3999 347.905C35.3092 330.285 35.235 313.642 31.2608 303.109C25.654 288.242 22.3147 270.427 22.9495 258.811Z" fill="url(#paint27_linear_234_677)" fill-opacity="0.5"/>
<path d="M45.7477 343.163C47.4545 353.856 48.5841 360.943 47.2401 370.428C46.4156 376.254 46.6629 381.067 47.9657 384.744C50.3403 391.458 55.4524 391.831 56.5737 391.831C56.6727 391.831 56.7387 391.831 56.7799 391.831C62.2465 391.813 68.9417 384.389 73.4271 373.376C76.5521 365.721 78.028 357.621 77.6075 350.57C77.5497 349.504 77.4755 348.491 77.4178 347.479C76.9313 339.77 76.5438 333.678 77.8383 330.889C79.0174 328.367 81.7466 327.852 86.4134 329.291C93.4302 331.458 101.238 322.754 104.99 308.598C108.412 295.667 107.67 280.978 102.953 268.26C90.8411 235.649 77.5003 251.262 71.0854 258.775C68.9664 261.262 65.3467 261.83 61.5292 262.434C52.0306 263.926 40.2151 265.809 41.2623 297.976C41.9549 319.379 44.0574 332.559 45.7477 343.163ZM61.6528 266.182C65.6683 265.56 69.4611 264.956 71.91 262.079C75.373 258.029 80.4191 252.132 86.0754 252.132C90.9978 252.132 96.382 256.59 101.593 270.605C107.422 286.306 105.279 299.983 103.481 306.768C100.125 319.433 92.9025 327.532 86.6608 325.614C81.3343 323.962 78.2341 324.779 76.6098 328.26C74.6969 332.346 75.1339 339.255 75.6946 347.994C75.7523 348.989 75.8182 350.019 75.8842 351.085C76.247 357.053 74.9113 364.104 72.1161 370.925C67.9935 381.049 61.6776 388.119 56.7469 388.119C56.7387 388.119 56.7304 388.119 56.7222 388.119C56.6809 388.119 51.4122 388.367 49.3261 382.488C48.3862 379.824 48.2378 376.129 48.8891 371.529C50.398 360.872 49.1283 352.95 47.3803 341.955C45.723 331.564 43.6616 318.616 42.9855 297.727C42.0621 269.29 52.0224 267.692 61.6528 266.182Z" fill="url(#paint28_linear_234_677)" fill-opacity="0.5"/>
<path d="M78.8359 312.576C79.4708 313.163 80.1551 313.447 80.8642 313.447C83.9232 313.447 87.5017 308.385 89.5795 302.399C91.748 296.164 92.0284 289.859 90.3298 285.56C86.504 275.791 80.1057 268.615 75.2904 273.784C73.4188 275.809 72.3469 281.155 72.4128 288.118C72.5283 297.035 74.5731 308.509 78.8359 312.576ZM76.082 277.141C79.5532 273.393 85.1188 278.065 89.0188 287.976C90.6514 292.15 88.9858 297.887 88.1943 300.178C86.0588 306.306 81.9774 311.511 79.5285 309.166C76.115 305.916 74.235 296.058 74.1526 288.047C74.1114 282.665 74.8534 278.473 76.082 277.141Z" fill="url(#paint29_linear_234_677)" fill-opacity="0.5"/>
<mask id="mask7_234_677" style="mask-type:luminance" maskUnits="userSpaceOnUse" x="-1" y="391" width="299" height="437">
<path d="M-0.0713009 391.298H297.097V827.819H-0.0713009V391.298Z" fill="white"/>
</mask>
<g mask="url(#mask7_234_677)">
<path d="M1.40453 707.09C8.54494 695.403 31.2277 687.907 41.8559 693.715L42.9772 694.337C53.0035 699.861 59.0555 703.183 81.2106 686.273C95.6728 675.225 99.2266 679.985 107.818 691.495C112.551 697.818 118.438 705.705 128.184 714.106C142.935 726.824 147.363 747.463 150.916 764.053C153.975 778.316 156.408 789.56 164.282 787.286C179.247 783.005 191.062 779.595 203.9 798.299C211.775 809.737 228.908 825.652 249.365 825.652C257.256 825.652 265.649 823.272 274.191 817.357C284.778 810.022 291.762 798.299 294.904 782.49C299.175 761.158 295.192 738.938 293.288 730.394C289.94 715.385 289.783 704.586 289.264 668.831C289.148 660.802 289.008 651.548 288.819 640.731C288.579 627.072 286.386 616.131 282.313 608.226C272.056 588.333 252.185 591.21 237.673 593.306C235.488 593.626 233.427 593.928 231.572 594.106C213.094 595.988 194.954 593.644 176.369 544.709C166.698 519.238 157.587 508.83 150.924 501.228C144.402 493.75 140.082 488.83 138.779 474.94C135.819 443.234 125.488 427.284 116.797 422.932C113.845 421.458 110.811 423.092 108.041 427.657C103.234 435.579 99.5564 452.009 99.3008 466.751C99.243 470.339 98.3526 473.75 96.654 476.911C89.9424 489.38 72.3469 495.455 54.8092 491.316C33.0582 486.201 1.88275 395.81 1.56943 394.886C1.28909 394.069 0.753152 393.874 0.357379 394.495C-0.0219054 395.117 -0.112603 396.271 0.175982 397.106C1.47049 400.89 32.11 489.736 54.6196 495.046C72.5943 499.274 90.7504 492.844 97.7836 479.753C99.8697 475.881 100.958 471.547 101.041 466.894C101.271 453.199 104.66 437.959 109.104 430.659C111.487 426.733 113.944 425.366 116.418 426.591C124.573 430.694 134.294 445.721 137.089 475.721C138.557 491.334 143.413 496.894 150.125 504.567C157.009 512.418 165.576 522.222 175.034 547.125C194.113 597.356 213.465 599.754 231.662 597.889C233.534 597.694 235.604 597.392 237.797 597.072C251.995 595.029 271.438 592.223 281.15 611.051C284.869 618.262 286.864 628.298 287.087 640.927C287.277 651.726 287.417 660.98 287.532 668.991C288.044 704.39 288.217 716.327 291.713 732.064C293.518 740.146 297.278 761.105 293.304 781.052C290.352 795.812 283.739 806.842 273.639 813.84C243.634 834.658 215.526 810.768 204.857 795.244C191.475 775.776 179.371 779.24 164.043 783.645C157.422 785.563 155.451 776.416 152.483 762.526C148.987 746.256 144.196 723.964 128.811 710.696C119.205 702.419 113.392 694.639 108.717 688.369C99.8944 676.557 95.8625 671.158 80.6169 682.792C58.9566 699.31 53.4323 696.273 43.3813 690.749L42.2681 690.127C31.0381 683.982 7.92655 691.726 0.340888 704.16C-0.0383939 704.763 -0.112603 705.954 0.175982 706.771C0.481057 707.552 1.02525 707.73 1.40453 707.09Z" fill="url(#paint30_linear_234_677)" fill-opacity="0.5"/>
</g>
<mask id="mask8_234_677" style="mask-type:luminance" maskUnits="userSpaceOnUse" x="-1" y="459" width="271" height="342">
<path d="M-0.0713009 459.505H269.657V800.537H-0.0713009V459.505Z" fill="white"/>
</mask>
<g mask="url(#mask8_234_677)">
<path d="M1.10769 671.992C1.80029 671.584 18.1259 661.957 22.6279 651.903C27.2122 641.672 34.2949 641.761 41.592 652.17C50.4145 664.745 66.7236 660.856 76.7829 650.021C78.5639 648.12 80.3448 645.847 82.233 643.466C90.5772 632.951 99.1936 622.081 105.518 643.413C113.062 668.813 117.506 671.069 127.252 676.06C128.44 676.646 129.718 677.303 131.086 678.049C132.768 678.937 134.236 679.701 135.547 680.358C144.081 684.657 145.614 685.438 153.011 704.55C161.363 726.149 162.921 726.895 182.042 736.131L186.354 738.209C198.838 744.284 204.403 753.449 210.29 763.165C215.51 771.78 220.902 780.661 231.332 788.707C239.743 795.208 247.238 798.476 253.29 798.476C258.253 798.476 262.252 796.274 264.998 791.851C267.785 787.375 269.129 780.679 268.898 772.526C268.214 748.014 256.777 728.565 237.277 703.236C230.261 694.124 227.845 683.911 225.289 673.111C221.661 657.8 217.917 641.992 200.817 629.914C195.259 625.989 190.576 623.022 186.816 620.624C170.787 610.447 167.448 608.333 158.617 574.372C157.257 569.114 155.921 563.928 154.618 558.848C144.93 520.961 137.262 491.032 127.953 487.569C117.646 483.75 115.255 489.647 111.924 500.446C109.146 509.434 95.3513 515.277 88.0954 512.453C83.4863 510.642 78.9349 519.025 74.5484 527.107C71.1431 533.377 67.6224 539.878 64.3902 540.89C56.887 543.235 45.6982 530.553 37.1808 510.02C32.8273 499.487 26.1404 493.004 19.6843 486.716C12.9314 480.144 5.93118 473.341 1.55293 461.973C1.2561 461.192 0.703668 461.068 0.33263 461.725C-0.030162 462.382 -0.0796316 463.554 0.217196 464.354C4.85929 476.379 12.0327 483.377 18.9752 490.109C25.5632 496.521 31.7719 502.56 35.8945 512.507C44.7665 533.928 56.5819 547.125 64.6376 544.585C68.3644 543.413 72.0831 536.556 75.6698 529.949C79.7594 522.418 83.9893 514.638 87.7821 516.112C95.7553 519.221 110.135 512.951 113.367 502.489C116.228 493.235 117.952 487.64 127.656 491.245C136.149 494.407 143.998 525.1 153.093 560.642C154.396 565.722 155.731 570.926 157.1 576.201C166.277 611.512 170.128 613.946 186.321 624.23C190.263 626.735 194.74 629.577 200.272 633.466C216.697 645.065 220.111 659.523 223.739 674.834C226.295 685.634 228.941 696.806 236.379 706.469C254.906 730.536 266.523 750.021 267.166 772.792C267.356 779.737 266.284 785.155 263.959 788.902C258.426 797.819 246.446 796.469 231.918 785.243C221.751 777.375 216.466 768.654 211.346 760.234C205.31 750.27 199.596 740.856 186.75 734.622L182.43 732.526C163.086 723.183 162.336 722.827 154.354 702.188C146.587 682.117 144.551 681.087 135.959 676.753C134.648 676.113 133.181 675.367 131.515 674.461C130.138 673.715 128.86 673.058 127.656 672.472C118.108 667.587 114.15 665.58 106.994 641.442C99.7625 617.09 89.9918 629.417 81.3673 640.305C79.4956 642.667 77.7393 644.887 76.0078 646.752C66.3444 657.161 50.5959 660.589 42.5485 649.115C34.5093 637.658 26.6021 637.747 21.3911 649.381C17.219 658.706 0.827347 668.369 0.662442 668.475C0.200706 668.724 -0.0713889 669.754 0.0522908 670.767C0.167724 671.673 0.654196 672.277 1.10769 671.992Z" fill="url(#paint31_linear_234_677)" fill-opacity="0.5"/>
</g>
<mask id="mask9_234_677" style="mask-type:luminance" maskUnits="userSpaceOnUse" x="-1" y="504" width="60" height="106">
<path d="M-0.0713009 504.975H58.5774V609.559H-0.0713009V504.975Z" fill="white"/>
</mask>
<g mask="url(#mask9_234_677)">
<path d="M53.0941 603.733C49.9032 605.313 44.1809 602.205 37.7744 595.42C31.8542 589.132 26.3299 580.748 23.7079 574.07C16.9798 556.947 9.15499 545.473 1.0911 540.926C0.629365 540.659 0.151137 541.263 0.0274597 542.258C-0.0879753 543.235 0.18412 544.265 0.645856 544.532C8.37168 548.901 15.8831 559.931 22.3804 576.486C27.4925 589.487 42.5319 607.853 51.2142 607.853C52.0222 607.853 52.7808 607.676 53.4734 607.356C55.6584 606.273 57.0766 603.413 57.5878 599.079C59.2616 584.834 51.2142 578.99 43.4141 573.324C38.7638 569.949 33.9485 566.45 31.1452 561.317C27.8965 555.402 24.9117 547.658 22.265 540.855C18.5381 531.21 15.3225 522.897 12.2305 521.476C7.59663 519.363 1.48688 508.439 1.42916 508.315C1.05812 507.657 0.513932 507.764 0.200611 508.563C-0.0962196 509.345 -0.0549947 510.517 0.316045 511.192C0.579894 511.654 6.82157 522.809 11.8594 525.135C14.366 526.308 17.5569 534.532 20.9292 543.253C23.6172 550.198 26.6597 558.066 30.0155 564.194C33.0828 569.789 38.0547 573.395 42.8617 576.894C51.5192 583.182 57.1013 588.066 55.9057 598.191C55.5677 601.157 54.6442 602.951 53.0941 603.733Z" fill="url(#paint32_linear_234_677)" fill-opacity="0.5"/>
</g>
<mask id="mask10_234_677" style="mask-type:luminance" maskUnits="userSpaceOnUse" x="-1" y="586" width="22" height="56">
<path d="M-0.0713009 586.823H20.5831V641.388H-0.0713009V586.823Z" fill="white"/>
</mask>
<g mask="url(#mask10_234_677)">
<path d="M16.8728 619.488C13.2613 626.699 4.19152 634.195 0.942878 633.697C0.472897 633.626 0.0441418 634.39 0.0111607 635.42C-0.0218205 636.45 0.332728 637.338 0.810953 637.41C0.959369 637.427 1.11603 637.445 1.28093 637.445C5.50252 637.445 14.4486 629.417 18.0518 622.205C19.2804 619.754 19.9153 617.392 19.9153 615.207C19.9153 606.415 5.61795 591.512 1.24795 587.143C0.810951 586.717 0.2915 587.125 0.0936135 588.066C-0.11252 588.99 0.0853661 590.109 0.514123 590.535C9.01501 599.008 18.1838 610.837 18.1838 615.207C18.1838 615.829 18.0106 617.214 16.8728 619.488Z" fill="url(#paint33_linear_234_677)" fill-opacity="0.5"/>
</g>
<path d="M83.0661 613.964C87.1475 617.463 92.3503 611.495 97.3882 605.722C101.552 600.944 105.84 596.006 108.676 597.782C115.05 601.779 119.378 610.393 121.563 623.395C124.169 638.902 133.049 650.269 143.158 650.998C153.736 651.761 160.465 653.68 165.766 661.744C173.179 673.005 178.085 678.387 180.954 678.387C181.441 678.387 181.878 678.245 182.249 677.925C183.106 677.214 183.675 675.74 183.906 673.644C185.143 662.063 173.88 642.632 165.585 634.337C159.046 627.8 149.498 609.292 137.196 579.345C131.598 565.704 125.002 564.567 119.7 563.626C117.07 563.164 114.794 562.773 112.997 561.05C112.37 560.464 111.694 559.772 110.968 559.025C105.007 552.933 95.0465 542.738 84.6657 557.658C79.3063 565.349 76.6266 577.818 77.3027 591.868C77.8139 602.401 80.1885 611.477 83.0661 613.964ZM85.6139 560.748C95.1867 547.018 104.232 556.255 110.218 562.383C110.968 563.146 111.653 563.857 112.287 564.461C114.365 566.432 116.888 566.859 119.568 567.32C124.82 568.244 130.765 569.292 135.894 581.779C148.525 612.543 157.999 630.838 164.859 637.694C174.127 646.983 183.048 664.994 182.216 672.792C182.092 673.893 181.853 674.213 181.63 674.408C180.55 675.296 177.178 674.444 166.772 658.671C161.116 650.074 154.132 648.014 143.224 647.232C132.233 646.45 125.142 633.662 123.196 622.099C120.813 607.907 116.097 598.511 109.162 594.177C108.585 593.821 107.983 593.662 107.365 593.662C104.207 593.662 100.48 597.942 96.5719 602.418C91.8968 607.8 87.0486 613.342 83.7093 610.482C81.4748 608.564 79.4629 600.393 79.0259 591.495C78.7374 585.527 78.7951 570.553 85.6139 560.748Z" fill="url(#paint34_linear_234_677)" fill-opacity="0.5"/>
<path d="M429.458 904.196C427.471 902.366 425.253 903.326 423.11 904.249C418.896 906.061 415.252 907.624 413.331 889.542C410.395 861.94 429.261 843.947 429.467 843.787C429.904 843.379 430.102 842.277 429.912 841.336C429.722 840.377 429.219 839.95 428.766 840.359C428.56 840.554 423.654 845.19 419.061 853.556C412.844 864.888 410.28 877.624 411.64 890.395C413.273 905.706 416.381 909.045 419.564 909.045C420.883 909.045 422.211 908.477 423.448 907.944C425.426 907.091 427.29 906.292 428.766 907.677C429.211 908.086 429.722 907.624 429.904 906.7C430.102 905.706 429.895 904.604 429.458 904.196Z" fill="url(#paint35_linear_234_677)" fill-opacity="0.5"/>
<defs>
<linearGradient id="paint0_linear_234_677" x1="0.0183141" y1="28.568" x2="148.276" y2="28.568" gradientUnits="userSpaceOnUse">
<stop offset="0.455538" stop-color="#1F4DC6"/>
<stop offset="0.709855" stop-color="#4773EE"/>
</linearGradient>
<linearGradient id="paint1_linear_234_677" x1="0.0190467" y1="55.1202" x2="184.576" y2="55.1202" gradientUnits="userSpaceOnUse">
<stop offset="0.455538" stop-color="#1F4DC6"/>
<stop offset="0.709855" stop-color="#4773EE"/>
</linearGradient>
<linearGradient id="paint2_linear_234_677" x1="0.0109889" y1="125.489" x2="227.396" y2="125.489" gradientUnits="userSpaceOnUse">
<stop offset="0.455538" stop-color="#1F4DC6"/>
<stop offset="0.709855" stop-color="#4773EE"/>
</linearGradient>
<linearGradient id="paint3_linear_234_677" x1="0.0244189" y1="151.355" x2="244.734" y2="151.355" gradientUnits="userSpaceOnUse">
<stop offset="0.455538" stop-color="#1F4DC6"/>
<stop offset="0.709855" stop-color="#4773EE"/>
</linearGradient>
<linearGradient id="paint4_linear_234_677" x1="0.033698" y1="537.455" x2="315.637" y2="537.455" gradientUnits="userSpaceOnUse">
<stop offset="0.455538" stop-color="#1F4DC6"/>
<stop offset="0.709855" stop-color="#4773EE"/>
</linearGradient>
<linearGradient id="paint5_linear_234_677" x1="0.0141629" y1="881.01" x2="113.508" y2="881.01" gradientUnits="userSpaceOnUse">
<stop offset="0.455538" stop-color="#1F4DC6"/>
<stop offset="0.709855" stop-color="#4773EE"/>
</linearGradient>
<linearGradient id="paint6_linear_234_677" x1="22.1909" y1="908.256" x2="81.786" y2="908.256" gradientUnits="userSpaceOnUse">
<stop offset="0.455538" stop-color="#1F4DC6"/>
<stop offset="0.709855" stop-color="#4773EE"/>
</linearGradient>
<linearGradient id="paint7_linear_234_677" x1="5.56562" y1="844.643" x2="28.1027" y2="844.643" gradientUnits="userSpaceOnUse">
<stop offset="0.455538" stop-color="#1F4DC6"/>
<stop offset="0.709855" stop-color="#4773EE"/>
</linearGradient>
<linearGradient id="paint8_linear_234_677" x1="167.909" y1="861.79" x2="429.982" y2="861.79" gradientUnits="userSpaceOnUse">
<stop offset="0.455538" stop-color="#1F4DC6"/>
<stop offset="0.709855" stop-color="#4773EE"/>
</linearGradient>
<linearGradient id="paint9_linear_234_677" x1="233.544" y1="427.299" x2="429.966" y2="427.299" gradientUnits="userSpaceOnUse">
<stop offset="0.455538" stop-color="#1F4DC6"/>
<stop offset="0.709855" stop-color="#4773EE"/>
</linearGradient>
<linearGradient id="paint10_linear_234_677" x1="252.715" y1="364.911" x2="430" y2="364.911" gradientUnits="userSpaceOnUse">
<stop offset="0.455538" stop-color="#1F4DC6"/>
<stop offset="0.709855" stop-color="#4773EE"/>
</linearGradient>
<linearGradient id="paint11_linear_234_677" x1="273.744" y1="344.72" x2="429.971" y2="344.72" gradientUnits="userSpaceOnUse">
<stop offset="0.455538" stop-color="#1F4DC6"/>
<stop offset="0.709855" stop-color="#4773EE"/>
</linearGradient>
<linearGradient id="paint12_linear_234_677" x1="313.582" y1="170.487" x2="429.983" y2="170.487" gradientUnits="userSpaceOnUse">
<stop offset="0.455538" stop-color="#1F4DC6"/>
<stop offset="0.709855" stop-color="#4773EE"/>
</linearGradient>
<linearGradient id="paint13_linear_234_677" x1="328.524" y1="69.5571" x2="429.976" y2="69.5571" gradientUnits="userSpaceOnUse">
<stop offset="0.455538" stop-color="#1F4DC6"/>
<stop offset="0.709855" stop-color="#4773EE"/>
</linearGradient>
<linearGradient id="paint14_linear_234_677" x1="415.56" y1="239.624" x2="429.988" y2="239.624" gradientUnits="userSpaceOnUse">
<stop offset="0.455538" stop-color="#1F4DC6"/>
<stop offset="0.709855" stop-color="#4773EE"/>
</linearGradient>
<linearGradient id="paint15_linear_234_677" x1="343.495" y1="48.5909" x2="429.978" y2="48.5909" gradientUnits="userSpaceOnUse">
<stop offset="0.455538" stop-color="#1F4DC6"/>
<stop offset="0.709855" stop-color="#4773EE"/>
</linearGradient>
<linearGradient id="paint16_linear_234_677" x1="360.462" y1="29.3297" x2="429.987" y2="29.3297" gradientUnits="userSpaceOnUse">
<stop offset="0.455538" stop-color="#1F4DC6"/>
<stop offset="0.709855" stop-color="#4773EE"/>
</linearGradient>
<linearGradient id="paint17_linear_234_677" x1="382.773" y1="5.24276" x2="394.518" y2="5.24276" gradientUnits="userSpaceOnUse">
<stop offset="0.455538" stop-color="#1F4DC6"/>
<stop offset="0.709855" stop-color="#4773EE"/>
</linearGradient>
<linearGradient id="paint18_linear_234_677" x1="348.361" y1="415.467" x2="429.986" y2="415.467" gradientUnits="userSpaceOnUse">
<stop offset="0.455538" stop-color="#1F4DC6"/>
<stop offset="0.709855" stop-color="#4773EE"/>
</linearGradient>
<linearGradient id="paint19_linear_234_677" x1="368.945" y1="424.101" x2="423.048" y2="424.101" gradientUnits="userSpaceOnUse">
<stop offset="0.455538" stop-color="#1F4DC6"/>
<stop offset="0.709855" stop-color="#4773EE"/>
</linearGradient>
<linearGradient id="paint20_linear_234_677" x1="335.459" y1="222.653" x2="381.698" y2="222.653" gradientUnits="userSpaceOnUse">
<stop offset="0.455538" stop-color="#1F4DC6"/>
<stop offset="0.709855" stop-color="#4773EE"/>
</linearGradient>
<linearGradient id="paint21_linear_234_677" x1="272.106" y1="319.664" x2="327.18" y2="319.664" gradientUnits="userSpaceOnUse">
<stop offset="0.455538" stop-color="#1F4DC6"/>
<stop offset="0.709855" stop-color="#4773EE"/>
</linearGradient>
<linearGradient id="paint22_linear_234_677" x1="289.63" y1="324.009" x2="309.426" y2="324.009" gradientUnits="userSpaceOnUse">
<stop offset="0.455538" stop-color="#1F4DC6"/>
<stop offset="0.709855" stop-color="#4773EE"/>
</linearGradient>
<linearGradient id="paint23_linear_234_677" x1="347.264" y1="792.038" x2="378.942" y2="792.038" gradientUnits="userSpaceOnUse">
<stop offset="0.455538" stop-color="#1F4DC6"/>
<stop offset="0.709855" stop-color="#4773EE"/>
</linearGradient>
<linearGradient id="paint24_linear_234_677" x1="230.743" y1="659.783" x2="274.791" y2="659.783" gradientUnits="userSpaceOnUse">
<stop offset="0.455538" stop-color="#1F4DC6"/>
<stop offset="0.709855" stop-color="#4773EE"/>
</linearGradient>
<linearGradient id="paint25_linear_234_677" x1="221.475" y1="746.749" x2="237.693" y2="746.749" gradientUnits="userSpaceOnUse">
<stop offset="0.455538" stop-color="#1F4DC6"/>
<stop offset="0.709855" stop-color="#4773EE"/>
</linearGradient>
<linearGradient id="paint26_linear_234_677" x1="0.025884" y1="373.063" x2="240.676" y2="373.063" gradientUnits="userSpaceOnUse">
<stop offset="0.455538" stop-color="#1F4DC6"/>
<stop offset="0.709855" stop-color="#4773EE"/>
</linearGradient>
<linearGradient id="paint27_linear_234_677" x1="21.1375" y1="320.923" x2="174.049" y2="320.923" gradientUnits="userSpaceOnUse">
<stop offset="0.455538" stop-color="#1F4DC6"/>
<stop offset="0.709855" stop-color="#4773EE"/>
</linearGradient>
<linearGradient id="paint28_linear_234_677" x1="41.1973" y1="319.284" x2="107.112" y2="319.284" gradientUnits="userSpaceOnUse">
<stop offset="0.455538" stop-color="#1F4DC6"/>
<stop offset="0.709855" stop-color="#4773EE"/>
</linearGradient>
<linearGradient id="paint29_linear_234_677" x1="72.41" y1="292.514" x2="91.4305" y2="292.514" gradientUnits="userSpaceOnUse">
<stop offset="0.455538" stop-color="#1F4DC6"/>
<stop offset="0.709855" stop-color="#4773EE"/>
</linearGradient>
<linearGradient id="paint30_linear_234_677" x1="9.82493e-07" y1="607.41" x2="296.807" y2="607.41" gradientUnits="userSpaceOnUse">
<stop offset="0.455538" stop-color="#1F4DC6"/>
<stop offset="0.709855" stop-color="#4773EE"/>
</linearGradient>
<linearGradient id="paint31_linear_234_677" x1="0.0224656" y1="627.95" x2="268.923" y2="627.95" gradientUnits="userSpaceOnUse">
<stop offset="0.455538" stop-color="#1F4DC6"/>
<stop offset="0.709855" stop-color="#4773EE"/>
</linearGradient>
<linearGradient id="paint32_linear_234_677" x1="0.000976916" y1="557.294" x2="57.8107" y2="557.294" gradientUnits="userSpaceOnUse">
<stop offset="0.455538" stop-color="#1F4DC6"/>
<stop offset="0.709855" stop-color="#4773EE"/>
</linearGradient>
<linearGradient id="paint33_linear_234_677" x1="0.00903477" y1="611.919" x2="19.9153" y2="611.919" gradientUnits="userSpaceOnUse">
<stop offset="0.455538" stop-color="#1F4DC6"/>
<stop offset="0.709855" stop-color="#4773EE"/>
</linearGradient>
<linearGradient id="paint34_linear_234_677" x1="77.1998" y1="613.418" x2="184" y2="613.418" gradientUnits="userSpaceOnUse">
<stop offset="0.455538" stop-color="#1F4DC6"/>
<stop offset="0.709855" stop-color="#4773EE"/>
</linearGradient>
<linearGradient id="paint35_linear_234_677" x1="411.285" y1="874.229" x2="429.984" y2="874.229" gradientUnits="userSpaceOnUse">
<stop offset="0.455538" stop-color="#1F4DC6"/>
<stop offset="0.709855" stop-color="#4773EE"/>
</linearGradient>
</defs>
</svg>
