<svg width="15" height="15" viewBox="0 0 15 15" fill="none" xmlns="http://www.w3.org/2000/svg">
<path d="M0.293071 14.6966C0.388217 14.792 0.501233 14.8676 0.625649 14.9192C0.750065 14.9708 0.883438 14.9974 1.01813 14.9974C1.15283 14.9974 1.2862 14.9708 1.41062 14.9192C1.53503 14.8676 1.64805 14.792 1.74319 14.6966L12.9431 3.50704V9.25611C12.9431 9.82176 13.4059 10.2846 13.9715 10.2846C14.5372 10.2846 15 9.82176 15 9.25611V1.02846C15 0.462804 14.5372 -9.80813e-07 13.9715 -9.80813e-07H5.74389C5.17824 -9.80813e-07 4.71543 0.462804 4.71543 1.02846C4.71543 1.59411 5.17824 2.05691 5.74389 2.05691H11.493L0.293071 13.2568C-0.0977429 13.6476 -0.0977429 14.3058 0.293071 14.6966Z" fill="white"/>
</svg>
