<svg width="28" height="28" viewBox="0 0 28 28" fill="none" xmlns="http://www.w3.org/2000/svg">
<mask id="path-1-inside-1_124_379" fill="white">
<path d="M0.41641 4.52359H27.1693C27.6288 4.52359 28 4.94066 28 5.45777V27.0666C28 27.5829 27.6295 28 27.1693 28H0.830667C0.721771 28.0002 0.613903 27.9763 0.513224 27.9297C0.412545 27.8831 0.321026 27.8146 0.243891 27.7282C0.166757 27.6419 0.105518 27.5393 0.0636706 27.4263C0.0218237 27.3133 0.000188402 27.1922 0 27.0699V5.37468C0 4.38403 1.33969 3.85562 2.39077 3.65475L21.2226 0.0527374C23.0375 -0.294153 24.5783 1.10954 25.0564 3.10779L25.3795 4.45986"/>
</mask>
<path d="M0.41641 2.52359C-0.688159 2.52359 -1.58359 3.41902 -1.58359 4.52359C-1.58359 5.62816 -0.688159 6.52359 0.41641 6.52359V2.52359ZM0.830667 28V26L0.826772 26L0.830667 28ZM0 27.0699H-2L-2 27.0729L0 27.0699ZM2.39077 3.65475L2.7662 5.6192L2.7665 5.61914L2.39077 3.65475ZM21.2226 0.0527374L20.8471 -1.9117L20.8468 -1.91165L21.2226 0.0527374ZM25.0564 3.10779L27.0016 2.64298L27.0015 2.64236L25.0564 3.10779ZM23.4342 4.92467C23.691 5.999 24.77 6.6618 25.8443 6.4051C26.9186 6.14839 27.5814 5.06937 27.3247 3.99505L23.4342 4.92467ZM0.41641 6.52359H27.1693V2.52359H0.41641V6.52359ZM27.1693 6.52359C26.3104 6.52359 26 5.81847 26 5.45777H30C30 4.06286 28.9473 2.52359 27.1693 2.52359V6.52359ZM26 5.45777V27.0666H30V5.45777H26ZM26 27.0666C26 26.7051 26.3111 26 27.1693 26V30C28.948 30 30 28.4607 30 27.0666H26ZM27.1693 26H0.830667V30H27.1693V26ZM0.826772 26C1.01513 25.9996 1.19499 26.0414 1.35375 26.1149L-0.327304 29.7445C0.0328163 29.9113 0.428416 30.0008 0.834562 30L0.826772 26ZM1.35375 26.1149C1.51161 26.188 1.63901 26.2879 1.73563 26.396L-1.24784 29.0604C-0.996957 29.3414 -0.686519 29.5781 -0.327304 29.7445L1.35375 26.1149ZM1.73563 26.396C1.83183 26.5038 1.89762 26.6195 1.93913 26.7316L-1.81179 28.121C-1.68659 28.459 -1.49832 28.7799 -1.24784 29.0604L1.73563 26.396ZM1.93913 26.7316C1.9806 26.8435 1.99983 26.9568 2 27.0668L-2 27.0729C-1.99945 27.4276 -1.93695 27.7832 -1.81179 28.121L1.93913 26.7316ZM2 27.0699V5.37468H-2V27.0699H2ZM2 5.37468C2 5.6116 1.9106 5.80163 1.83364 5.90567C1.77368 5.98672 1.74678 5.98383 1.83362 5.93149C1.91415 5.88296 2.04252 5.82219 2.2195 5.76182C2.39262 5.70276 2.58176 5.65445 2.7662 5.6192L2.01534 1.6903C1.36588 1.81442 0.514259 2.05634 -0.231154 2.5056C-0.941986 2.93402 -2 3.84415 -2 5.37468H2ZM2.7665 5.61914L21.5983 2.01713L20.8468 -1.91165L2.01503 1.69036L2.7665 5.61914ZM21.598 2.01718C21.8587 1.96736 22.1024 2.02321 22.3638 2.2401C22.6528 2.47986 22.9568 2.92725 23.1113 3.57323L27.0015 2.64236C26.3828 0.0569354 24.115 -2.53629 20.8471 -1.9117L21.598 2.01718ZM23.1112 3.57261L23.4342 4.92467L27.3247 3.99505L27.0016 2.64298L23.1112 3.57261Z" fill="#272C2F" fill-opacity="0.25" mask="url(#path-1-inside-1_124_379)"/>
<path d="M23.1556 16.2207C23.1556 16.4922 23.0316 16.7889 22.7479 17.0333C22.4595 17.2817 22.0404 17.4414 21.5778 17.4414C21.1151 17.4414 20.6961 17.2817 20.4077 17.0333C20.124 16.7889 20 16.4922 20 16.2207C20 15.9492 20.124 15.6525 20.4077 15.4081C20.6961 15.1596 21.1151 15 21.5778 15C22.0404 15 22.4595 15.1596 22.7479 15.4081C23.0316 15.6525 23.1556 15.9492 23.1556 16.2207Z" stroke="#272C2F" stroke-opacity="0.25" stroke-width="2" stroke-linecap="round" stroke-linejoin="round"/>
<mask id="path-4-inside-2_124_379" fill="white">
<path d="M27.3115 21.7725C27.1705 21.7873 27.0291 21.7945 26.8877 21.7942H18.6389C18.031 21.7958 17.4288 21.6532 16.8667 21.3747C16.3046 21.0962 15.7936 20.6871 15.3629 20.1709C14.9321 19.6546 14.59 19.0413 14.3562 18.366C14.1224 17.6906 14.0013 16.9664 14 16.2348V15.5835C13.9987 14.8519 14.1171 14.1271 14.3485 13.4505C14.5799 12.7739 14.9198 12.1589 15.3487 11.6404C15.7776 11.1219 16.2871 10.7102 16.8482 10.4287C17.4093 10.1473 18.011 10.0016 18.6188 10H26.8877C27.0309 10 27.1722 10.0084 27.3115 10.0241"/>
</mask>
<path d="M27.5208 23.7615C28.6193 23.6459 29.4161 22.6617 29.3005 21.5632C29.1849 20.4647 28.2007 19.6679 27.1022 19.7835L27.5208 23.7615ZM26.8877 21.7942L26.8928 19.7942H26.8877V21.7942ZM18.6389 21.7942V19.7942L18.6337 19.7942L18.6389 21.7942ZM14 16.2348H12L12 16.2383L14 16.2348ZM14 15.5835H16L16 15.5799L14 15.5835ZM18.6188 10V7.99999L18.6136 8.00001L18.6188 10ZM27.0877 12.0116C28.1854 12.1351 29.1754 11.3455 29.2989 10.2478C29.4225 9.15021 28.6328 8.16023 27.5352 8.03667L27.0877 12.0116ZM27.1022 19.7835C27.0324 19.7908 26.9625 19.7944 26.8928 19.7942L26.8825 23.7942C27.0957 23.7947 27.3087 23.7838 27.5208 23.7615L27.1022 19.7835ZM26.8877 19.7942H18.6389V23.7942H26.8877V19.7942ZM18.6337 19.7942C18.3457 19.7949 18.0484 19.7282 17.7547 19.5826L15.9787 23.1668C16.8093 23.5783 17.7163 23.7966 18.6441 23.7942L18.6337 19.7942ZM17.7547 19.5826C17.4592 19.4362 17.1641 19.2079 16.8985 18.8895L13.8272 21.4522C14.4231 22.1663 15.1501 22.7562 15.9787 23.1668L17.7547 19.5826ZM16.8985 18.8895C16.6323 18.5706 16.4058 18.1728 16.2461 17.7116L12.4663 19.0203C12.7743 19.9099 13.2318 20.7387 13.8272 21.4522L16.8985 18.8895ZM16.2461 17.7116C16.0865 17.2505 16.0009 16.7466 16 16.2312L12 16.2383C12.0017 17.1862 12.1582 18.1306 12.4663 19.0203L16.2461 17.7116ZM16 16.2348V15.5835H12V16.2348H16ZM16 15.5799C15.9991 15.0645 16.0828 14.5599 16.2409 14.0978L12.4562 12.8033C12.1514 13.6942 11.9983 14.6393 12 15.5871L16 15.5799ZM16.2409 14.0978C16.399 13.6354 16.6244 13.236 16.8897 12.9152L13.8076 10.3656C13.2152 11.0817 12.7608 11.9125 12.4562 12.8033L16.2409 14.0978ZM16.8897 12.9152C17.1547 12.5949 17.4494 12.3647 17.745 12.2164L15.9515 8.64102C15.1249 9.05566 14.4005 9.64888 13.8076 10.3656L16.8897 12.9152ZM17.745 12.2164C18.0387 12.0691 18.3361 12.0007 18.6241 12L18.6136 8.00001C17.6859 8.00242 16.78 8.22543 15.9515 8.64102L17.745 12.2164ZM18.6188 12H26.8877V8H18.6188V12ZM26.8877 12C26.9522 12 27.0187 12.0038 27.0877 12.0116L27.5352 8.03667C27.3257 8.01309 27.1097 8 26.8877 8V12Z" fill="#272C2F" fill-opacity="0.25" mask="url(#path-4-inside-2_124_379)"/>
</svg>
