<svg width="18" height="18" viewBox="0 0 18 18" fill="none" xmlns="http://www.w3.org/2000/svg">
<g clip-path="url(#clip0_124_353)">
<path d="M3.25 3.5H12.75C12.9489 3.5 13.1397 3.57902 13.2803 3.71967C13.421 3.86032 13.5 4.05109 13.5 4.25V16.25C13.5 16.4489 13.421 16.6397 13.2803 16.7803C13.1397 16.921 12.9489 17 12.75 17H3.25C3.05109 17 2.86032 16.921 2.71967 16.7803C2.57902 16.6397 2.5 16.4489 2.5 16.25V4.25C2.5 4.05109 2.57902 3.86032 2.71967 3.71967C2.86032 3.57902 3.05109 3.5 3.25 3.5ZM3.5 16H12.5V4.5H3.5V16Z" fill="#272C2F" fill-opacity="0.25"/>
<path d="M5 1.75C5 1.55109 5.07902 1.36032 5.21967 1.21967C5.36032 1.07902 5.55109 1 5.75 1H15.25C15.4489 1 15.6397 1.07902 15.7803 1.21967C15.921 1.36032 16 1.55109 16 1.75V13.75C16 13.9489 15.921 14.1397 15.7803 14.2803C15.6397 14.421 15.4489 14.5 15.25 14.5H15V2H5V1.75Z" fill="#B5B5B5"/>
</g>
<defs>
<clipPath id="clip0_124_353">
<rect width="18" height="18" fill="white" transform="matrix(-1 0 0 1 18 0)"/>
</clipPath>
</defs>
</svg>
