<svg width="60" height="60" viewBox="0 0 60 60" fill="none" xmlns="http://www.w3.org/2000/svg">
<g clip-path="url(#clip0_120_106)">
<rect width="60" height="60" rx="10" fill="#7E7DFF"/>
<path d="M29.9911 18.1244C30.1528 18.1243 30.3129 18.156 30.4622 18.2177C30.6116 18.2795 30.7473 18.3701 30.8616 18.4844C30.9759 18.5987 31.0665 18.7344 31.1283 18.8838C31.1901 19.0332 31.2218 19.1933 31.2216 19.3549L31.2287 38.3546L36.1077 33.4755C36.5878 32.9955 37.3733 32.9954 37.8532 33.4754C38.3332 33.9554 38.3331 34.7408 37.8531 35.2209L30.8705 42.2035C30.3904 42.6835 29.605 42.6836 29.125 42.2036L22.1436 35.2223C21.6636 34.7423 21.6637 33.9568 22.1438 33.4768C22.6238 32.9967 23.4093 32.9966 23.8893 33.4766L28.7675 38.3548L28.7692 19.3464C28.7692 18.6831 29.3278 18.1245 29.9911 18.1244Z" fill="white"/>
<rect width="60" height="60" rx="10" fill="#8785FF"/>
<mask id="mask0_120_106" style="mask-type:luminance" maskUnits="userSpaceOnUse" x="15" y="23" width="30" height="22">
<path d="M15 23.0285H45V45H15V23.0285Z" fill="white"/>
</mask>
<g mask="url(#mask0_120_106)">
<path fill-rule="evenodd" clip-rule="evenodd" d="M16.6262 23.2734H24.3302C24.0186 23.5182 23.7248 23.7896 23.4509 24.0875C23.177 24.3866 22.9264 24.7072 22.6969 25.0505C22.4674 25.3938 22.2634 25.756 22.0848 26.1359C21.9063 26.5171 21.7555 26.9109 21.6325 27.3186C21.5083 27.7262 21.414 28.1427 21.3486 28.5681C21.2832 28.9922 21.2477 29.42 21.2422 29.8517C21.2355 30.2833 21.2599 30.7125 21.3142 31.1391C21.3686 31.5657 21.4517 31.9847 21.5648 32.3974C21.6779 32.8089 21.8187 33.2077 21.9862 33.594C22.1547 33.9802 22.3499 34.3487 22.5694 34.7009C22.7889 35.0517 23.0318 35.3812 23.2979 35.6879C23.564 35.9958 23.849 36.2773 24.155 36.5322C24.4599 36.7885 24.7804 37.0156 25.1174 37.2125C25.4545 37.4107 25.8027 37.576 26.1631 37.7111C26.5234 37.8449 26.8904 37.9471 27.2641 38.0153C27.6389 38.0834 28.0148 38.1175 28.394 38.1175H39.4366L39.4255 38.1352C39.6129 38.1516 39.7992 38.1768 39.9833 38.2122C40.1685 38.2475 40.3514 38.2929 40.5321 38.3485C40.7129 38.4027 40.8914 38.4684 41.0677 38.5416C41.2429 38.616 41.4148 38.6993 41.5844 38.7915C41.7529 38.8836 41.917 38.9846 42.0778 39.0957C42.2386 39.2055 42.3938 39.3228 42.5446 39.4503C42.6954 39.5765 42.8418 39.7103 42.9815 39.853C43.1212 39.9943 43.2543 40.1445 43.3818 40.2998C43.5093 40.4563 43.6302 40.6191 43.7444 40.7882C43.8586 40.9573 43.965 41.1328 44.0648 41.3133C44.1646 41.4937 44.2566 41.6793 44.3409 41.8699C44.4263 42.0592 44.5028 42.2536 44.5704 42.453C44.6392 42.6511 44.6991 42.8531 44.7512 43.0575C44.8033 43.2633 44.8465 43.4703 44.882 43.6798C44.9164 43.8893 44.943 44.1001 44.9596 44.3121C44.9774 44.5242 44.9862 44.7375 44.9862 44.9508H28.394C28.1146 44.9508 27.8363 44.9407 27.5579 44.9205C27.2796 44.9003 27.0024 44.87 26.7252 44.8296C26.4491 44.7892 26.1741 44.7387 25.9003 44.6781C25.6264 44.6176 25.3536 44.5481 25.0842 44.4674C24.8147 44.3878 24.5464 44.2982 24.2814 44.1985C24.0175 44.0988 23.7547 43.9903 23.4964 43.8716C23.238 43.7543 22.9819 43.6268 22.7302 43.4892C22.4785 43.3529 22.2312 43.2077 21.9873 43.0525C21.7444 42.8973 21.5049 42.7344 21.271 42.5628C21.0359 42.3911 20.8064 42.2106 20.5824 42.0213C20.3584 41.8333 20.1389 41.6364 19.926 41.4319C19.712 41.2274 19.5046 41.0154 19.3028 40.797C19.1021 40.5774 18.9059 40.3502 18.7174 40.1167C18.5289 39.8832 18.3459 39.6434 18.1707 39.3961C17.9956 39.1499 17.827 38.8975 17.6651 38.6375C17.5043 38.3788 17.3502 38.115 17.2039 37.8449C17.0564 37.5748 16.9178 37.2996 16.7869 37.0194C16.655 36.7392 16.5319 36.454 16.4166 36.165C16.3013 35.8759 16.1937 35.5831 16.0951 35.2865C15.9964 34.9899 15.9054 34.6895 15.8234 34.3866C15.7413 34.0837 15.667 33.777 15.6027 33.4677C15.5373 33.1598 15.4808 32.8493 15.4331 32.5363C15.3854 32.2233 15.3466 31.909 15.3156 31.5935C15.2856 31.2779 15.2646 30.9611 15.2512 30.6443C15.239 30.3275 15.2357 30.0095 15.2402 29.6927C15.2457 29.3746 15.2601 29.0578 15.2823 28.7423C15.3056 28.4255 15.3366 28.1099 15.3776 27.7957C15.4176 27.4814 15.4675 27.1696 15.5251 26.8591C15.5828 26.5487 15.6493 26.2407 15.7247 25.934C15.8001 25.6285 15.8833 25.3256 15.9753 25.0265C16.0673 24.7261 16.1671 24.4308 16.2758 24.1379C16.3844 23.8451 16.5009 23.5574 16.6262 23.2734Z" fill="white"/>
</g>
<mask id="mask1_120_106" style="mask-type:luminance" maskUnits="userSpaceOnUse" x="17" y="15" width="25" height="22">
<path d="M17.2705 15H41.6821V36.9223H17.2705V15Z" fill="white"/>
</mask>
<g mask="url(#mask1_120_106)">
<path fill-rule="evenodd" clip-rule="evenodd" d="M28.3937 15C28.672 15 28.9515 15.0101 29.2298 15.0303C29.5081 15.0505 29.7853 15.0808 30.0625 15.1212C30.3386 15.1616 30.6136 15.212 30.8874 15.2726C31.1613 15.3332 31.433 15.4026 31.7035 15.4834C31.973 15.5629 32.2402 15.6525 32.5052 15.7522C32.7702 15.8507 33.0319 15.9605 33.2913 16.0779C33.5497 16.1965 33.8047 16.324 34.0564 16.4603C34.3081 16.5979 34.5565 16.743 34.8004 16.8983C35.0433 17.0523 35.2828 17.2163 35.5167 17.388C35.7518 17.5596 35.9813 17.7401 36.2053 17.9282C36.4293 18.1175 36.6488 18.3131 36.8617 18.5176C37.0757 18.7221 37.2831 18.9341 37.4849 19.1537C37.6856 19.3733 37.8807 19.5993 38.0703 19.8328C38.2588 20.0663 38.4418 20.3073 38.617 20.5535C38.7922 20.8008 38.9607 21.0533 39.1226 21.312C39.2834 21.5707 39.4375 21.8358 39.5839 22.1059C39.7302 22.376 39.8699 22.6511 40.0008 22.9313C40.1327 23.2115 40.2558 23.4955 40.3711 23.7846C40.4864 24.0736 40.5929 24.3664 40.6927 24.663C40.7913 24.9596 40.8823 25.26 40.9643 25.5642C41.0464 25.8671 41.1207 26.1725 41.185 26.4818C41.2504 26.791 41.3069 27.1015 41.3546 27.4145C41.4023 27.7262 41.4411 28.0405 41.4722 28.3561C41.5021 28.6716 41.5232 28.9884 41.5365 29.3052C41.5487 29.6232 41.552 29.94 41.5476 30.2581C41.542 30.5749 41.5276 30.8917 41.5054 31.2085C41.4821 31.524 41.45 31.8396 41.4101 32.1539C41.369 32.4681 41.3202 32.7799 41.2626 33.0916C41.2049 33.4021 41.1384 33.7101 41.063 34.0155C40.9876 34.321 40.9044 34.6239 40.8124 34.9243C40.7204 35.2234 40.6195 35.52 40.5108 35.8116C40.4033 36.1044 40.2857 36.3921 40.1615 36.6761H32.4575C32.7691 36.4313 33.0629 36.1599 33.3368 35.862C33.6107 35.5642 33.8613 35.2423 34.0908 34.899C34.3203 34.5557 34.5243 34.1935 34.7029 33.8136C34.8814 33.4324 35.0322 33.0386 35.1553 32.6309C35.2794 32.2233 35.3737 31.8068 35.4391 31.3827C35.5045 30.9573 35.54 30.5295 35.5456 30.0978C35.5522 29.6662 35.5278 29.2383 35.4735 28.8104C35.4192 28.3838 35.336 27.9648 35.2229 27.5533C35.1098 27.1406 34.969 26.7418 34.8004 26.3555C34.633 25.9693 34.4379 25.6008 34.2183 25.2486C33.9988 24.8978 33.7559 24.5683 33.4898 24.2616C33.2237 23.9537 32.9376 23.6722 32.6327 23.4173C32.3278 23.161 32.0062 22.9351 31.6703 22.737C31.3332 22.5401 30.985 22.3735 30.6247 22.2384C30.2643 22.1046 29.8973 22.0024 29.5236 21.9342C29.1488 21.8661 28.7729 21.832 28.3937 21.832H17.3511C17.6482 21.3095 17.972 20.8109 18.3246 20.3338C18.6761 19.858 19.052 19.4087 19.4534 18.9859C19.8548 18.563 20.2772 18.1693 20.7219 17.807C21.1654 17.4435 21.6278 17.1141 22.1079 16.8162C22.5891 16.5196 23.0836 16.2571 23.5926 16.0299C24.1015 15.804 24.6216 15.6134 25.1505 15.4607C25.6805 15.3067 26.2171 15.1918 26.7593 15.1149C27.3027 15.0379 27.8471 15 28.3937 15Z" fill="white"/>
</g>
</g>
<defs>
<clipPath id="clip0_120_106">
<rect width="60" height="60" rx="10" fill="white"/>
</clipPath>
</defs>
</svg>
