<svg width="15" height="15" viewBox="0 0 15 15" fill="none" xmlns="http://www.w3.org/2000/svg">
<path d="M14.7069 0.300766C14.6118 0.205425 14.4988 0.129784 14.3744 0.0781747C14.2499 0.0265652 14.1166 0 13.9819 0C13.8472 0 13.7138 0.0265652 13.5894 0.0781747C13.465 0.129784 13.352 0.205425 13.2568 0.300766L2.05691 11.4904V5.7413C2.05691 5.17565 1.59411 4.71285 1.02846 4.71285C0.462805 4.71285 0 5.17565 0 5.7413V13.969C0 14.5346 0.462805 14.9974 1.02846 14.9974H9.25611C9.82176 14.9974 10.2846 14.5346 10.2846 13.969C10.2846 13.4033 9.82176 12.9405 9.25611 12.9405H3.50704L14.7069 1.74061C15.0977 1.34979 15.0977 0.69158 14.7069 0.300766Z" fill="white"/>
</svg>
