<svg width="35" height="35" viewBox="0 0 35 35" fill="none" xmlns="http://www.w3.org/2000/svg">
<path d="M33.542 17.5L25.5212 31.3542L9.47949 31.3542L1.45866 17.5L9.47949 3.64584L25.5212 3.64584L33.542 17.5ZM30.1718 17.5L23.8397 6.56251L11.161 6.56251L4.82887 17.5L11.161 28.4375L23.8397 28.4375L30.1718 17.5ZM11.667 17.5C11.667 15.9529 12.2816 14.4692 13.3755 13.3752C14.4695 12.2813 15.9532 11.6667 17.5003 11.6667C19.0474 11.6667 20.5312 12.2813 21.6251 13.3752C22.7191 14.4692 23.3337 15.9529 23.3337 17.5C23.3337 19.0471 22.7191 20.5308 21.6251 21.6248C20.5312 22.7188 19.0474 23.3333 17.5003 23.3333C15.9532 23.3333 14.4695 22.7188 13.3755 21.6248C12.2816 20.5308 11.667 19.0471 11.667 17.5ZM14.5837 17.5C14.5837 18.2736 14.891 19.0154 15.4379 19.5624C15.9849 20.1094 16.7268 20.4167 17.5003 20.4167C18.2739 20.4167 19.0157 20.1094 19.5627 19.5624C20.1097 19.0154 20.417 18.2736 20.417 17.5C20.417 16.7265 20.1097 15.9846 19.5627 15.4376C19.0157 14.8906 18.2739 14.5833 17.5003 14.5833C16.7268 14.5833 15.9849 14.8906 15.4379 15.4376C14.891 15.9846 14.5837 16.7265 14.5837 17.5Z" fill="white"/>
</svg>
