<svg width="20" height="20" viewBox="0 0 20 20" fill="none" xmlns="http://www.w3.org/2000/svg">
<path d="M9.1665 7.5H10.8332V5.83334H9.1665M9.99984 16.6667C6.32484 16.6667 3.33317 13.675 3.33317 10C3.33317 6.32501 6.32484 3.33334 9.99984 3.33334C13.6748 3.33334 16.6665 6.32501 16.6665 10C16.6665 13.675 13.6748 16.6667 9.99984 16.6667ZM9.99984 1.66667C8.90549 1.66667 7.82185 1.88222 6.81081 2.30101C5.79976 2.7198 4.8811 3.33363 4.10728 4.10745C2.54448 5.67025 1.6665 7.78987 1.6665 10C1.6665 12.2101 2.54448 14.3298 4.10728 15.8926C4.8811 16.6664 5.79976 17.2802 6.81081 17.699C7.82185 18.1178 8.90549 18.3333 9.99984 18.3333C12.21 18.3333 14.3296 17.4554 15.8924 15.8926C17.4552 14.3298 18.3332 12.2101 18.3332 10C18.3332 8.90566 18.1176 7.82202 17.6988 6.81098C17.28 5.79993 16.6662 4.88127 15.8924 4.10745C15.1186 3.33363 14.1999 2.7198 13.1889 2.30101C12.1778 1.88222 11.0942 1.66667 9.99984 1.66667ZM9.1665 14.1667H10.8332V9.16667H9.1665V14.1667Z" fill="black" fill-opacity="0.5"/>
</svg>
