<svg width="30" height="30" viewBox="0 0 30 30" fill="none" xmlns="http://www.w3.org/2000/svg">
<path d="M28.075 9.375C28.075 10.3829 27.2579 11.2 26.25 11.2C25.2421 11.2 24.425 10.3829 24.425 9.375C24.425 8.36708 25.2421 7.55 26.25 7.55C27.2579 7.55 28.075 8.36708 28.075 9.375Z" fill="#2657E2" stroke="#2657E2" stroke-width="0.1"/>
<path d="M16.875 27.1875H10.3125V25.3125H16.875C21.5278 25.3125 25.3125 21.5278 25.3125 16.875V13.125H27.1875V16.875C27.1875 22.5609 22.5609 27.1875 16.875 27.1875Z" fill="#2657E2" stroke="#2657E2" stroke-width="0.1"/>
<path d="M15 19.6875C12.4153 19.6875 10.3125 17.5847 10.3125 15C10.3125 12.4153 12.4153 10.3125 15 10.3125C17.5847 10.3125 19.6875 12.4153 19.6875 15C19.6875 17.5847 17.5847 19.6875 15 19.6875ZM15 12.1875C13.4494 12.1875 12.1875 13.4494 12.1875 15C12.1875 16.5506 13.4494 17.8125 15 17.8125C16.5506 17.8125 17.8125 16.5506 17.8125 15C17.8125 13.4494 16.5506 12.1875 15 12.1875Z" fill="#2657E2" stroke="#2657E2"/>
<path d="M5.575 20.625C5.575 21.6329 4.75792 22.45 3.75 22.45C2.74208 22.45 1.925 21.6329 1.925 20.625C1.925 19.6171 2.74208 18.8 3.75 18.8C4.75792 18.8 5.575 19.6171 5.575 20.625Z" fill="#2657E2" stroke="#2657E2" stroke-width="0.1"/>
<path d="M4.6875 16.875H2.8125V13.125C2.8125 7.43906 7.43906 2.8125 13.125 2.8125H19.6875V4.6875H13.125C8.47219 4.6875 4.6875 8.47219 4.6875 13.125V16.875Z" fill="#2657E2" stroke="#2657E2" stroke-width="0.1"/>
</svg>
