<svg width="18" height="18" viewBox="0 0 18 18" fill="none" xmlns="http://www.w3.org/2000/svg">
<mask id="path-1-inside-1_49_171" fill="white">
<path d="M16.5 0H1.5C1.10218 0 0.720644 0.158035 0.43934 0.43934C0.158035 0.720644 0 1.10218 0 1.5V16.5C0 16.8978 0.158035 17.2794 0.43934 17.5607C0.720644 17.842 1.10218 18 1.5 18H16.5C16.8978 18 17.2794 17.842 17.5607 17.5607C17.842 17.2794 18 16.8978 18 16.5V1.5C18 1.10218 17.842 0.720644 17.5607 0.43934C17.2794 0.158035 16.8978 0 16.5 0ZM1.5 16.5V1.5H16.5V16.5H1.5Z"/>
</mask>
<path d="M16.5 0H1.5C1.10218 0 0.720644 0.158035 0.43934 0.43934C0.158035 0.720644 0 1.10218 0 1.5V16.5C0 16.8978 0.158035 17.2794 0.43934 17.5607C0.720644 17.842 1.10218 18 1.5 18H16.5C16.8978 18 17.2794 17.842 17.5607 17.5607C17.842 17.2794 18 16.8978 18 16.5V1.5C18 1.10218 17.842 0.720644 17.5607 0.43934C17.2794 0.158035 16.8978 0 16.5 0ZM1.5 16.5V1.5H16.5V16.5H1.5Z" fill="black" fill-opacity="0.5"/>
<path d="M16.5 0V-2V0ZM1.5 0V-2V0ZM0 1.5H-2H0ZM0 16.5H-2H0ZM1.5 16.5H-0.5V18.5H1.5V16.5ZM1.5 1.5V-0.5H-0.5V1.5H1.5ZM16.5 1.5H18.5V-0.5H16.5V1.5ZM16.5 16.5V18.5H18.5V16.5H16.5ZM16.5 -2H1.5V2H16.5V-2ZM1.5 -2C0.571743 -2 -0.318496 -1.63125 -0.974874 -0.974874L1.85355 1.85355C1.75978 1.94732 1.63261 2 1.5 2V-2ZM-0.974874 -0.974874C-1.63125 -0.318496 -2 0.571743 -2 1.5H2C2 1.63261 1.94732 1.75978 1.85355 1.85355L-0.974874 -0.974874ZM-2 1.5V16.5H2V1.5H-2ZM-2 16.5C-2 17.4283 -1.63125 18.3185 -0.974874 18.9749L1.85355 16.1464C1.94732 16.2402 2 16.3674 2 16.5H-2ZM-0.974874 18.9749C-0.318497 19.6313 0.571741 20 1.5 20V16C1.63261 16 1.75979 16.0527 1.85355 16.1464L-0.974874 18.9749ZM1.5 20H16.5V16H1.5V20ZM16.5 20C17.4283 20 18.3185 19.6313 18.9749 18.9749L16.1464 16.1464C16.2402 16.0527 16.3674 16 16.5 16V20ZM18.9749 18.9749C19.6313 18.3185 20 17.4283 20 16.5H16C16 16.3674 16.0527 16.2402 16.1464 16.1464L18.9749 18.9749ZM20 16.5V1.5H16V16.5H20ZM20 1.5C20 0.571741 19.6313 -0.318497 18.9749 -0.974874L16.1464 1.85355C16.0527 1.75979 16 1.63261 16 1.5H20ZM18.9749 -0.974874C18.3185 -1.63125 17.4283 -2 16.5 -2V2C16.3674 2 16.2402 1.94732 16.1464 1.85355L18.9749 -0.974874ZM3.5 16.5V1.5H-0.5V16.5H3.5ZM1.5 3.5H16.5V-0.5H1.5V3.5ZM14.5 1.5V16.5H18.5V1.5H14.5ZM16.5 14.5H1.5V18.5H16.5V14.5Z" fill="black" fill-opacity="0.5" mask="url(#path-1-inside-1_49_171)"/>
</svg>
