<svg width="36" height="30" viewBox="0 0 36 30" fill="none" xmlns="http://www.w3.org/2000/svg">
<path d="M6.89657 18.3269C5.60188 19.4359 4.8374 20.9763 4.8374 22.6219C4.8374 23.6046 5.29438 24.509 6.04172 25.1492C6.78427 25.7852 7.76248 26.1219 8.75605 26.1219H26.2679C27.2615 26.1219 28.2397 25.7852 28.9822 25.1492C29.7296 24.509 30.1866 23.6046 30.1866 22.6219C30.1866 20.9763 29.4221 19.4359 28.1274 18.3269C26.8375 17.2221 25.1169 16.6219 23.3493 16.6219H11.6747C9.90705 16.6219 8.18648 17.2221 6.89657 18.3269Z" stroke="#272C2F" stroke-opacity="0.25" stroke-width="2" stroke-linejoin="round"/>
<path d="M17.5118 13.5C20.3311 13.5 22.8897 11.513 22.8897 8.75C22.8897 5.987 20.3311 4 17.5118 4C14.6924 4 12.1338 5.987 12.1338 8.75C12.1338 11.513 14.6924 13.5 17.5118 13.5Z" stroke="#272C2F" stroke-opacity="0.25" stroke-width="2"/>
</svg>
