<svg width="35" height="35" viewBox="0 0 35 35" fill="none" xmlns="http://www.w3.org/2000/svg">
<path d="M21.8752 27.7083C21.8752 28.8686 21.4143 29.9814 20.5938 30.8019C19.7733 31.6224 18.6605 32.0833 17.5002 32.0833C16.3399 32.0833 15.2271 31.6224 14.4066 30.8019C13.5861 29.9814 13.1252 28.8686 13.1252 27.7083M18.5517 7.29603L16.4137 7.29165C11.5371 7.27999 7.30352 11.2423 7.26998 16.0417V21.5687C7.26998 22.7208 7.12415 23.8452 6.49561 24.8033L6.07707 25.4421C5.43977 26.4104 6.12519 27.7083 7.26998 27.7083H27.7304C28.8752 27.7083 29.5592 26.4104 28.9233 25.4421L28.5048 24.8033C27.8777 23.8452 27.7304 22.7194 27.7304 21.5673V16.0431C27.6721 11.2423 23.4283 7.30769 18.5517 7.29603Z" stroke="white" stroke-width="2" stroke-linecap="round" stroke-linejoin="round"/>
<path d="M17.5002 2.91666C18.2737 2.91666 19.0156 3.22395 19.5626 3.77093C20.1095 4.31791 20.4168 5.05978 20.4168 5.83332V7.29166H14.5835V5.83332C14.5835 5.05978 14.8908 4.31791 15.4378 3.77093C15.9847 3.22395 16.7266 2.91666 17.5002 2.91666Z" stroke="white" stroke-width="2" stroke-linecap="round" stroke-linejoin="round"/>
</svg>
